<svg id="Layer_1" data-name="Layer 1" xmlns="http://www.w3.org/2000/svg" viewBox="0 0 566.93 566.93"><defs><style>.cls-1{fill:#fce6f1;stroke:#fce6f1;stroke-miterlimit:10;stroke-width:3px;}</style></defs><title>ikon2</title><path class="cls-1" d="M311.89,318.45a7.8,7.8,0,0,1-5.54-2.29L133.56,143.36A7.82,7.82,0,0,1,139.09,130H337.62a7.83,7.83,0,0,1,0,15.65H158L311.89,299.57l153.9-153.91H372.87a7.83,7.83,0,0,1-5.72-13.17L479.46,12.22A7.82,7.82,0,0,1,490.89,22.9L390.88,130h93.8a7.82,7.82,0,0,1,5.53,13.35L317.42,316.16a7.79,7.79,0,0,1-5.53,2.29"/><path class="cls-1" d="M312.14,541a7.84,7.84,0,0,1-7.83-7.83V345A7.83,7.83,0,0,1,320,345V533.16a7.83,7.83,0,0,1-7.82,7.83"/><path class="cls-1" d="M423.87,543.84H200.4a7.82,7.82,0,0,1,0-15.64H423.87a7.82,7.82,0,1,1,0,15.64"/></svg>
