<?xml version="1.0" standalone="no"?>
<!DOCTYPE svg PUBLIC "-//W3C//DTD SVG 1.1//EN" "http://www.w3.org/Graphics/SVG/1.1/DTD/svg11.dtd" >
<svg xmlns="http://www.w3.org/2000/svg" xmlns:xlink="http://www.w3.org/1999/xlink" version="1.1">
<metadata>
Created by FontForge 20170731 at Fri Jan 29 14:05:47 2016
 By Aleksey,,,
Copyright (c) 2016 by Studio C and Elias Werner. All rights reserved.
</metadata>
<defs>
<font id="HUSET" horiz-adv-x="396" >
  <font-face
    font-family="HUSET"
    font-weight="400"
    font-stretch="normal"
    units-per-em="1000"
    panose-1="0 0 0 0 0 0 0 0 0 0"
    ascent="750"
    descent="-250"
    x-height="700"
    cap-height="700"
    bbox="3 -109 737.692 884"
    underline-thickness="50"
    underline-position="-200"
    unicode-range="U+0020-2013"
  />
<missing-glyph
d="M369 682h-342v-307q0 -9 -9 -9t-9 9v316q0 9 9 9h360q9 0 9 -9v-316q0 -9 -9 -9t-9 9v307zM333 646h-270v-271q0 -9 -9 -9t-9 9v280q0 9 9 9h288q9 0 9 -9v-280q0 -9 -9 -9t-9 9v271zM297 610h-198v-235q0 -9 -9 -9t-9 9v244q0 9 9 9h216q9 0 9 -9v-244q0 -9 -9 -9t-9 9
v235zM261 574h-126v-199q0 -9 -9 -9t-9 9v208q0 9 9 9h144q9 0 9 -9v-208q0 -9 -9 -9t-9 9v199zM225 538h-54v-163q0 -9 -9 -9t-9 9v172q0 9 9 9h72q9 0 9 -9v-172q0 -9 -9 -9t-9 9v163zM27 18h342v307q0 9 9 9t9 -9v-316q0 -9 -9 -9h-360q-9 0 -9 9v316q0 9 9 9t9 -9v-307z
M63 54h270v271q0 9 9 9t9 -9v-280q0 -9 -9 -9h-288q-9 0 -9 9v280q0 9 9 9t9 -9v-271zM99 90h198v235q0 9 9 9t9 -9v-244q0 -9 -9 -9h-216q-9 0 -9 9v244q0 9 9 9t9 -9v-235zM135 126h126v199q0 9 9 9t9 -9v-208q0 -9 -9 -9h-144q-9 0 -9 9v208q0 9 9 9t9 -9v-199zM171 162
h54v163q0 9 9 9t9 -9v-172q0 -9 -9 -9h-72q-9 0 -9 9v172q0 9 9 9t9 -9v-163zM207 511v-322q0 -9 -9 -9t-9 9v322q0 9 9 9t9 -9z" />
    <glyph glyph-name=".notdef"
d="M369 682h-342v-307q0 -9 -9 -9t-9 9v316q0 9 9 9h360q9 0 9 -9v-316q0 -9 -9 -9t-9 9v307zM333 646h-270v-271q0 -9 -9 -9t-9 9v280q0 9 9 9h288q9 0 9 -9v-280q0 -9 -9 -9t-9 9v271zM297 610h-198v-235q0 -9 -9 -9t-9 9v244q0 9 9 9h216q9 0 9 -9v-244q0 -9 -9 -9t-9 9
v235zM261 574h-126v-199q0 -9 -9 -9t-9 9v208q0 9 9 9h144q9 0 9 -9v-208q0 -9 -9 -9t-9 9v199zM225 538h-54v-163q0 -9 -9 -9t-9 9v172q0 9 9 9h72q9 0 9 -9v-172q0 -9 -9 -9t-9 9v163zM27 18h342v307q0 9 9 9t9 -9v-316q0 -9 -9 -9h-360q-9 0 -9 9v316q0 9 9 9t9 -9v-307z
M63 54h270v271q0 9 9 9t9 -9v-280q0 -9 -9 -9h-288q-9 0 -9 9v280q0 9 9 9t9 -9v-271zM99 90h198v235q0 9 9 9t9 -9v-244q0 -9 -9 -9h-216q-9 0 -9 9v244q0 9 9 9t9 -9v-235zM135 126h126v199q0 9 9 9t9 -9v-208q0 -9 -9 -9h-144q-9 0 -9 9v208q0 9 9 9t9 -9v-199zM171 162
h54v163q0 9 9 9t9 -9v-172q0 -9 -9 -9h-72q-9 0 -9 9v172q0 9 9 9t9 -9v-163zM207 511v-322q0 -9 -9 -9t-9 9v322q0 9 9 9t9 -9z" />
    <glyph glyph-name=".null" horiz-adv-x="0"
 />
    <glyph glyph-name="nonmarkingreturn" horiz-adv-x="333"
 />
    <glyph glyph-name="space" unicode=" " horiz-adv-x="230"
 />
    <glyph glyph-name="exclam" unicode="!" horiz-adv-x="276"
d="M179 102h-84v-84h22q9 0 9 -9t-9 -9h-31q-9 0 -9 9v102q0 9 9 9h102q9 0 9 -9v-102q0 -9 -9 -9h-31q-9 0 -9 9t9 9h22v84zM209 689l-63 -510q-2 -9 -9 -9t-9 9l-61 510q-1 4 2 7.5t7 3.5h41q9 0 9 -9t-9 -9h-31l51 -440l53 440h-33q-9 0 -9 9t9 9h43q4 0 7 -3.5t2 -7.5z
" />
    <glyph glyph-name="parenleft" unicode="("
d="M369 682h-342v-307q0 -9 -9 -9t-9 9v316q0 9 9 9h360q9 0 9 -9v-316q0 -9 -9 -9t-9 9v307zM333 646h-270v-271q0 -9 -9 -9t-9 9v280q0 9 9 9h288q9 0 9 -9v-280q0 -9 -9 -9t-9 9v271zM297 610h-198v-235q0 -9 -9 -9t-9 9v244q0 9 9 9h216q9 0 9 -9v-244q0 -9 -9 -9t-9 9
v235zM261 574h-126v-199q0 -9 -9 -9t-9 9v208q0 9 9 9h144q9 0 9 -9v-208q0 -9 -9 -9t-9 9v199zM225 538h-54v-163q0 -9 -9 -9t-9 9v172q0 9 9 9h72q9 0 9 -9v-172q0 -9 -9 -9t-9 9v163zM27 18h342v307q0 9 9 9t9 -9v-316q0 -9 -9 -9h-360q-9 0 -9 9v316q0 9 9 9t9 -9v-307z
M63 54h270v271q0 9 9 9t9 -9v-280q0 -9 -9 -9h-288q-9 0 -9 9v280q0 9 9 9t9 -9v-271zM99 90h198v235q0 9 9 9t9 -9v-244q0 -9 -9 -9h-216q-9 0 -9 9v244q0 9 9 9t9 -9v-235zM135 126h126v199q0 9 9 9t9 -9v-208q0 -9 -9 -9h-144q-9 0 -9 9v208q0 9 9 9t9 -9v-199zM171 162
h54v163q0 9 9 9t9 -9v-172q0 -9 -9 -9h-72q-9 0 -9 9v172q0 9 9 9t9 -9v-163zM207 511v-322q0 -9 -9 -9t-9 9v322q0 9 9 9t9 -9z" />
    <glyph glyph-name="parenright" unicode=")"
d="M369 682h-342v-307q0 -9 -9 -9t-9 9v316q0 9 9 9h360q9 0 9 -9v-316q0 -9 -9 -9t-9 9v307zM333 646h-270v-271q0 -9 -9 -9t-9 9v280q0 9 9 9h288q9 0 9 -9v-280q0 -9 -9 -9t-9 9v271zM297 610h-198v-235q0 -9 -9 -9t-9 9v244q0 9 9 9h216q9 0 9 -9v-244q0 -9 -9 -9t-9 9
v235zM261 574h-126v-199q0 -9 -9 -9t-9 9v208q0 9 9 9h144q9 0 9 -9v-208q0 -9 -9 -9t-9 9v199zM225 538h-54v-163q0 -9 -9 -9t-9 9v172q0 9 9 9h72q9 0 9 -9v-172q0 -9 -9 -9t-9 9v163zM27 18h342v307q0 9 9 9t9 -9v-316q0 -9 -9 -9h-360q-9 0 -9 9v316q0 9 9 9t9 -9v-307z
M63 54h270v271q0 9 9 9t9 -9v-280q0 -9 -9 -9h-288q-9 0 -9 9v280q0 9 9 9t9 -9v-271zM99 90h198v235q0 9 9 9t9 -9v-244q0 -9 -9 -9h-216q-9 0 -9 9v244q0 9 9 9t9 -9v-235zM135 126h126v199q0 9 9 9t9 -9v-208q0 -9 -9 -9h-144q-9 0 -9 9v208q0 9 9 9t9 -9v-199zM171 162
h54v163q0 9 9 9t9 -9v-172q0 -9 -9 -9h-72q-9 0 -9 9v172q0 9 9 9t9 -9v-163zM207 511v-322q0 -9 -9 -9t-9 9v322q0 9 9 9t9 -9z" />
    <glyph glyph-name="comma" unicode="," horiz-adv-x="254"
d="M169 102h-84v-84h54q9 0 9 -9t-9 -9h-63q-9 0 -9 9v102q0 9 9 9h102q9 0 9 -9v-102q0 -104 -97 -104h-14q-9 0 -9 9t9 9h14q38 0 58.5 18.5t20.5 67.5v93z" />
    <glyph glyph-name="hyphen" unicode="-" horiz-adv-x="320"
d="M40 315v20q0 9 9 9t9 -9v-11h204v11q0 9 9 9t9 -9v-20q0 -9 -9 -9h-222q-9 0 -9 9zM40 377v20q0 9 9 9h222q9 0 9 -9v-20q0 -9 -9 -9t-9 9v11h-204v-11q0 -9 -9 -9t-9 9z" />
    <glyph glyph-name="period" unicode="." horiz-adv-x="254"
d="M169 102h-84v-84h22q9 0 9 -9t-9 -9h-31q-9 0 -9 9v102q0 9 9 9h102q9 0 9 -9v-102q0 -9 -9 -9h-31q-9 0 -9 9t9 9h22v84z" />
    <glyph glyph-name="zero" unicode="0" horiz-adv-x="490"
d="M53 188v147q0 9 9 9t9 -9v-147q0 -69 44.5 -121.5t128.5 -52.5q76 0 125.5 50t49.5 124v147q0 9 9 9t9 -9v-147q0 -90 -58 -141.5t-135 -51.5q-76 0 -133.5 50t-57.5 143zM53 375v137q0 90 57 141.5t136 51.5q76 0 133.5 -50t57.5 -143v-137q0 -9 -9 -9t-9 9v137
q0 69 -44.5 121.5t-128.5 52.5q-76 0 -125.5 -50t-49.5 -124v-137q0 -9 -9 -9t-9 9zM137 189v322q0 43 22 72t59 38q16 3 16 -9q0 -8 -9 -9q-27 -4 -48.5 -27.5t-21.5 -64.5v-322q0 -41 21.5 -64.5t48.5 -27.5q9 -1 9 -9q0 -12 -16 -9q-37 9 -59 38t-22 72zM353 511v-322
q0 -43 -22 -72t-59 -38q-16 -3 -16 9q0 8 9 9q27 4 48.5 27.5t21.5 64.5v322q0 41 -21.5 64.5t-48.5 27.5q-9 1 -9 9q0 12 16 9q37 -9 59 -38t22 -72zM178 302l121 120q7 7 13 1q7 -7 0 -14l-121 -120q-7 -7 -13 -1q-7 7 0 14z" />
    <glyph glyph-name="one" unicode="1" horiz-adv-x="426"
d="M186 82h-135v-64h157q9 0 9 -9t-9 -9h-166q-9 0 -9 9v82q0 9 9 9h135v500h-111q-9 0 -9 9v82q0 9 9 9h165q9 0 9 -9t-9 -9h-156v-64h111q9 0 9 -9v-518q0 -9 -9 -9zM402 0h-154q-9 0 -9 9t9 9h145v64h-123q-9 0 -9 9v600q0 9 9 9t9 -9v-591h123q9 0 9 -9v-82q0 -9 -9 -9z
" />
    <glyph glyph-name="two" unicode="2" horiz-adv-x="473"
d="M259 600q-7 2 -7 9q0 11 12 8q37 -9 58.5 -38.5t21.5 -74.5q0 -57 -45 -101l-171 -170q-47 -47 -62 -92.5t-15 -122.5h364v64h-243q-9 0 -9 9t9 9h252q9 0 9 -9v-82q0 -9 -9 -9h-382q-9 0 -9 9q0 88 16 137t66 99l171 170q40 40 40 89q0 38 -18 63.5t-49 32.5zM218 616
q12 3 12 -8q0 -7 -7 -9q-34 -7 -54 -31t-22 -60q0 -9 -9 -9h-88q-9 0 -9 9q0 81 58 139t144 58q82 0 135.5 -53t53.5 -139q0 -93 -77 -170l-166 -168q-28 -28 -37.5 -43t-9.5 -41q0 -9 -9 -9t-9 9q0 30 10.5 48t40.5 48l167 169q71 72 71 157q0 77 -47 125.5t-123 48.5
q-75 0 -127.5 -50t-56.5 -120h71q5 36 28 63.5t60 35.5z" />
    <glyph glyph-name="three" unicode="3" horiz-adv-x="509"
d="M276 620q40 -8 64.5 -40t24.5 -75q0 -49 -33.5 -81.5t-87.5 -32.5h-41v-70h52q61 0 93 -33t32 -86q0 -49 -27 -82.5t-77 -40.5q-15 -3 -15 9q0 8 9 9q44 6 67.5 34.5t23.5 70.5q0 45 -27 73t-79 28h-62q-9 0 -9 9v88q0 9 9 9h51q46 0 74 27.5t28 68.5q0 37 -21 63.5
t-55 33.5q-9 2 -9 9q0 12 15 9zM230 602q-74 -13 -77 -100q0 -9 -9 -9h-88q-9 0 -9 9q0 85 57.5 144t145.5 59q89 0 143 -53.5t54 -131.5q0 -105 -77 -155q95 -59 95 -171q0 -86 -58.5 -142.5t-156.5 -56.5q-95 0 -154 58.5t-59 144.5q0 9 9 9h88q3 0 6 -3t3 -6
q2 -43 24 -69.5t63 -31.5q9 -1 9 -9q0 -12 -15 -9q-44 7 -69 35.5t-29 74.5h-71q5 -75 57.5 -125.5t137.5 -50.5q89 0 142 52.5t53 128.5q0 48 -23 91t-68 69q-10 5 -10 11t10 11q74 43 74 144q0 67 -50.5 117t-127.5 50q-78 0 -129 -51t-56 -125h71q4 44 27 73t61 36
q15 3 15 -9q0 -7 -9 -9z" />
    <glyph glyph-name="four" unicode="4" horiz-adv-x="508"
d="M312 226h-195q-9 0 -9 9t9 9h186v262l-157 -234q-6 -8 -12 -3q-7 6 -3 13l171 257q5 7 11 7q8 0 8 -10v-301q0 -9 -9 -9zM303 8v114q0 9 9 9t9 -9v-103h66v143q0 9 9 9h54v55h-54q-9 0 -9 9v459q0 9 9 9t9 -9v-450h54q9 0 9 -9v-73q0 -9 -9 -9h-54v-145q0 -8 -9 -8h-84
q-9 0 -9 8zM312 153h-293q-9 0 -9 9v72q0 6 3 11l296 452q5 6 11 6h28q9 0 9 -9t-9 -9h-25l-295 -448v-66h284q9 0 9 -9t-9 -9z" />
    <glyph glyph-name="five" unicode="5" horiz-adv-x="494"
d="M150 414v155q0 9 9 9t9 -9v-143q36 26 99 26q80 0 133.5 -62.5t53.5 -159.5q0 -110 -56.5 -172.5t-154.5 -62.5q-95 0 -154 58.5t-59 144.5q0 9 9 9h88q9 0 9 -9q2 -43 24 -69.5t63 -31.5q9 -1 9 -9q0 -12 -15 -9q-44 7 -69 35.5t-29 74.5h-71q5 -75 57.5 -125.5
t137.5 -50.5q89 0 141 58.5t52 158.5q0 87 -49 145.5t-120 58.5q-51 0 -89 -21q-18 -9 -19 -9q-9 0 -9 10zM115 320h-40q-9 0 -9 9v362q0 9 9 9h330q9 0 9 -9v-83q0 -9 -9 -9h-246q-9 0 -9 9t9 9h237v65h-312v-344h31q9 0 9 -9t-9 -9zM149 337q39 32 92 32q62 0 95 -39
t33 -100q0 -134 -100 -151q-15 -3 -15 9q0 8 9 9q42 7 65 41t23 92q0 54 -27.5 87.5t-82.5 33.5q-36 0 -80 -28q-7 -6 -13 0q-8 8 1 14z" />
    <glyph glyph-name="six" unicode="6" horiz-adv-x="513"
d="M155 367q-7 -7 -11 -7q-8 0 -8 10l1 128q0 48 25.5 82t70.5 41q15 3 15 -9q0 -8 -9 -9q-39 -6 -61.5 -35t-22.5 -70q-1 0 -1 -111q5 5 13.5 12.5t39.5 19.5t65 12q79 0 139 -63.5t60 -154.5q0 -92 -61.5 -155t-147.5 -63q-90 0 -149.5 61t-59.5 157l1 293q0 85 57 142
t151 57q84 0 139.5 -57.5t55.5 -145.5q0 -9 -9 -9h-88q-3 0 -6 3t-3 6q0 44 -19.5 69.5t-52.5 31.5q-9 1 -9 9q0 12 15 9q36 -7 60 -36.5t24 -73.5h70q-5 78 -54 127t-123 49q-85 0 -137.5 -52.5t-52.5 -128.5q-1 0 -1 -293q0 -89 54 -144.5t137 -55.5q79 0 135 58t56 142
q0 83 -54.5 141.5t-126.5 58.5q-70 0 -117 -46zM287 82q42 10 69.5 46.5t27.5 85.5q0 57 -36.5 95.5t-86.5 38.5t-86.5 -38.5t-36.5 -95.5q0 -49 27.5 -85.5t69.5 -46.5q15 -3 15 9q0 7 -9 9q-36 8 -60.5 39.5t-24.5 74.5q0 49 31 82.5t74 33.5t74 -33.5t31 -82.5
q0 -43 -24.5 -74.5t-60.5 -39.5q-9 -2 -9 -9q0 -12 15 -9z" />
    <glyph glyph-name="seven" unicode="7" horiz-adv-x="417"
d="M289 596l-71 -225q-2 -6 -9 -6q-5 0 -7 3.5t-1 8.5l71 223h-250q-9 0 -9 9v82q0 9 9 9h353q9 0 9 -9v-61q0 -4 -3 -16l-74 -243q-1 -6 -9 -6q-4 0 -7 3.5t-1 8.5l76 248v57h-335v-64h252q9 0 9 -8q0 -4 -3 -14zM206 332l-99 -314h73l98 320q2 6 9 6q5 0 7 -4t1 -8
l-99 -323q-3 -9 -12 -9h-89q-9 0 -9 8q0 4 3 14l100 316q1 6 9 6q4 0 7 -4t1 -8z" />
    <glyph glyph-name="eight" unicode="8" horiz-adv-x="514"
d="M385 365q41 -30 63 -75.5t22 -95.5q0 -86 -57.5 -142.5t-155.5 -56.5q-97 0 -155 57t-58 142q0 50 22 95.5t63 75.5q-57 45 -66 131q0 10 9 10q8 0 9 -9q9 -80 64 -121q8 -6 8 -11t-8 -11q-39 -26 -60 -70t-21 -90q0 -76 52.5 -128.5t140.5 -52.5t140.5 52.5t52.5 128.5
q0 46 -21 90t-60 70q-8 6 -8 11t8 11q55 41 64 121q1 9 9 9q9 0 9 -10q-9 -86 -66 -131zM451 538q0 -10 -9 -10q-8 0 -9 9q-8 63 -56 106.5t-120 43.5t-120 -43.5t-56 -106.5q-1 -9 -9 -9q-9 0 -9 10q6 72 58.5 119.5t135.5 47.5t135.5 -47.5t58.5 -119.5zM231 389
q-39 9 -63 41t-24 75q0 51 31.5 84t81.5 33t81.5 -33t31.5 -84q0 -43 -24 -75t-63 -41q-15 -3 -15 9q0 8 9 9q33 7 53.5 34t20.5 64q0 43 -26 71t-68 28t-68 -28t-26 -71q0 -37 20.5 -64t53.5 -34q9 -1 9 -9q0 -12 -15 -9zM385 202q0 -54 -33 -87.5t-95 -33.5t-95 33.5
t-33 87.5q0 108 105 123q12 2 12 -9q0 -8 -9 -9q-45 -6 -67 -34t-22 -71q0 -46 28 -74.5t81 -28.5t81 28.5t28 74.5q0 43 -22 71t-67 34q-9 1 -9 9q0 11 12 9q105 -15 105 -123z" />
    <glyph glyph-name="nine" unicode="9" horiz-adv-x="513"
d="M358 333q7 7 11 7q8 0 8 -10l-1 -128q0 -48 -25.5 -82t-70.5 -41q-15 -3 -15 9q0 8 9 9q39 6 61.5 35t22.5 70q1 0 1 111q-5 -5 -13.5 -12.5t-39.5 -19.5t-65 -12q-79 0 -139 63.5t-60 154.5q0 92 61.5 155t147.5 63q90 0 149.5 -61t59.5 -157l-1 -293q0 -85 -57 -142
t-151 -57q-84 0 -139.5 57.5t-55.5 145.5q0 9 9 9h88q3 0 6 -3t3 -6q0 -44 19.5 -69.5t52.5 -31.5q9 -1 9 -9q0 -12 -15 -9q-36 7 -60 36.5t-24 73.5h-70q5 -78 54 -127t123 -49q85 0 137.5 52.5t52.5 128.5q1 0 1 293q0 89 -54 144.5t-137 55.5q-79 0 -135 -58t-56 -142
q0 -83 54.5 -141.5t126.5 -58.5q70 0 117 46zM226 618q-42 -10 -69.5 -46.5t-27.5 -85.5q0 -57 36.5 -95.5t86.5 -38.5t86.5 38.5t36.5 95.5q0 49 -27.5 85.5t-69.5 46.5q-15 3 -15 -9q0 -7 9 -9q36 -8 60.5 -39.5t24.5 -74.5q0 -49 -31 -82.5t-74 -33.5t-74 33.5t-31 82.5
q0 43 24.5 74.5t60.5 39.5q9 2 9 9q0 12 -15 9z" />
    <glyph glyph-name="colon" unicode=":" horiz-adv-x="254"
d="M169 202h-84v-84h22q9 0 9 -9t-9 -9h-31q-9 0 -9 9v102q0 9 9 9h102q9 0 9 -9v-102q0 -9 -9 -9h-31q-9 0 -9 9t9 9h22v84zM169 582h-84v-84h22q9 0 9 -9t-9 -9h-31q-9 0 -9 9v102q0 9 9 9h102q9 0 9 -9v-102q0 -9 -9 -9h-31q-9 0 -9 9t9 9h22v84z" />
    <glyph glyph-name="question" unicode="?"
d="M369 682h-342v-307q0 -9 -9 -9t-9 9v316q0 9 9 9h360q9 0 9 -9v-316q0 -9 -9 -9t-9 9v307zM333 646h-270v-271q0 -9 -9 -9t-9 9v280q0 9 9 9h288q9 0 9 -9v-280q0 -9 -9 -9t-9 9v271zM297 610h-198v-235q0 -9 -9 -9t-9 9v244q0 9 9 9h216q9 0 9 -9v-244q0 -9 -9 -9t-9 9
v235zM261 574h-126v-199q0 -9 -9 -9t-9 9v208q0 9 9 9h144q9 0 9 -9v-208q0 -9 -9 -9t-9 9v199zM225 538h-54v-163q0 -9 -9 -9t-9 9v172q0 9 9 9h72q9 0 9 -9v-172q0 -9 -9 -9t-9 9v163zM27 18h342v307q0 9 9 9t9 -9v-316q0 -9 -9 -9h-360q-9 0 -9 9v316q0 9 9 9t9 -9v-307z
M63 54h270v271q0 9 9 9t9 -9v-280q0 -9 -9 -9h-288q-9 0 -9 9v280q0 9 9 9t9 -9v-271zM99 90h198v235q0 9 9 9t9 -9v-244q0 -9 -9 -9h-216q-9 0 -9 9v244q0 9 9 9t9 -9v-235zM135 126h126v199q0 9 9 9t9 -9v-208q0 -9 -9 -9h-144q-9 0 -9 9v208q0 9 9 9t9 -9v-199zM171 162
h54v163q0 9 9 9t9 -9v-172q0 -9 -9 -9h-72q-9 0 -9 9v172q0 9 9 9t9 -9v-163zM207 511v-322q0 -9 -9 -9t-9 9v322q0 9 9 9t9 -9z" />
    <glyph glyph-name="at" unicode="@"
d="M369 682h-342v-307q0 -9 -9 -9t-9 9v316q0 9 9 9h360q9 0 9 -9v-316q0 -9 -9 -9t-9 9v307zM333 646h-270v-271q0 -9 -9 -9t-9 9v280q0 9 9 9h288q9 0 9 -9v-280q0 -9 -9 -9t-9 9v271zM297 610h-198v-235q0 -9 -9 -9t-9 9v244q0 9 9 9h216q9 0 9 -9v-244q0 -9 -9 -9t-9 9
v235zM261 574h-126v-199q0 -9 -9 -9t-9 9v208q0 9 9 9h144q9 0 9 -9v-208q0 -9 -9 -9t-9 9v199zM225 538h-54v-163q0 -9 -9 -9t-9 9v172q0 9 9 9h72q9 0 9 -9v-172q0 -9 -9 -9t-9 9v163zM27 18h342v307q0 9 9 9t9 -9v-316q0 -9 -9 -9h-360q-9 0 -9 9v316q0 9 9 9t9 -9v-307z
M63 54h270v271q0 9 9 9t9 -9v-280q0 -9 -9 -9h-288q-9 0 -9 9v280q0 9 9 9t9 -9v-271zM99 90h198v235q0 9 9 9t9 -9v-244q0 -9 -9 -9h-216q-9 0 -9 9v244q0 9 9 9t9 -9v-235zM135 126h126v199q0 9 9 9t9 -9v-208q0 -9 -9 -9h-144q-9 0 -9 9v208q0 9 9 9t9 -9v-199zM171 162
h54v163q0 9 9 9t9 -9v-172q0 -9 -9 -9h-72q-9 0 -9 9v172q0 9 9 9t9 -9v-163zM207 511v-322q0 -9 -9 -9t-9 9v322q0 9 9 9t9 -9z" />
    <glyph glyph-name="A" unicode="A" horiz-adv-x="491"
d="M184 257h43q9 0 9 -9t-9 -9h-56q-10 0 -7 10l74 299q2 9 9 9t9 -9l73 -299q3 -10 -7 -10h-55q-9 0 -9 9t9 9h42l-62 255zM455 18l-83 316q-1 5 1 9t7 4q7 0 10 -9l85 -328q3 -10 -7 -10h-87q-8 0 -10 9l-37 148h-176l-37 -148q-2 -9 -10 -9h-88q-10 0 -7 10l86 328
q3 9 10 9q5 0 7 -4t1 -9l-83 -316h68l37 148q2 9 10 9h188q8 0 10 -9l37 -148h68zM361 377l-80 305h-70l-80 -305q-3 -9 -10 -9q-5 0 -7 4t-1 9l81 310q2 9 10 9h84q8 0 10 -9l81 -310q1 -5 -1 -9t-7 -4q-7 0 -10 9z" />
    <glyph glyph-name="B" unicode="B" horiz-adv-x="499"
d="M169 484v-79h78q45 0 72.5 27.5t27.5 69.5t-27 69.5t-73 27.5h-78v-75q0 -9 -9 -9t-9 9v84q0 9 9 9h87q54 0 86.5 -32.5t32.5 -82.5t-33 -83t-86 -33h-87q-9 0 -9 9v89q0 9 9 9t9 -9zM169 183v-79h89q50 0 77 28.5t27 72.5q0 46 -26.5 74.5t-77.5 28.5h-89v-84
q0 -9 -9 -9t-9 9v93q0 9 9 9h98q60 0 91.5 -33.5t31.5 -87.5q0 -52 -32 -86t-91 -34h-98q-9 0 -9 9v89q0 9 9 9t9 -9zM357 354q-10 5 -10 11t10 11q72 43 72 141q0 67 -50.5 116t-131.5 49h-162v-307q0 -9 -9 -9t-9 9v316q0 9 9 9h169q93 0 148 -53t55 -130q0 -101 -75 -152
q93 -60 93 -168q0 -84 -57.5 -140.5t-152.5 -56.5h-180q-9 0 -9 9v326q0 9 9 9t9 -9v-317h173q84 0 136 52t52 127q0 47 -22.5 89t-66.5 68z" />
    <glyph glyph-name="C" unicode="C" horiz-adv-x="472"
d="M353 214v-25q0 -52 -27 -82t-77 -30q-55 0 -83.5 32t-28.5 80v146q0 9 9 9t9 -9v-146q0 -43 26.5 -68.5t67.5 -25.5q36 0 61 22.5t25 71.5v34q0 9 9 9h84q9 0 9 -9v-35q0 -95 -55 -144t-133 -49q-77 0 -136.5 50t-59.5 143v147q0 9 9 9t9 -9v-147q0 -69 45.5 -121.5
t132.5 -52.5q74 0 122 48t48 126v26h-66zM333 488v23q0 47 -24 70.5t-58 23.5q-41 0 -68.5 -25t-27.5 -69v-136q0 -9 -9 -9t-9 9v136q0 48 29.5 80t84.5 32q49 0 74.5 -30t25.5 -82v-14h66v15q0 73 -43 123.5t-123 50.5q-79 0 -129.5 -50t-50.5 -124v-137q0 -9 -9 -9t-9 9
v137q0 91 58 142t140 51q77 0 130.5 -47t53.5 -146v-24q0 -9 -9 -9h-84q-9 0 -9 9z" />
    <glyph glyph-name="D" unicode="D" horiz-adv-x="504"
d="M255 82h-95q-9 0 -9 9v518q0 9 9 9h93q55 0 84.5 -32t29.5 -80v-131q0 -9 -9 -9t-9 9v131q0 44 -27.5 69t-68.5 25h-84v-500h86q41 0 67.5 25.5t26.5 68.5v141q0 9 9 9t9 -9v-141q0 -48 -28.5 -80t-83.5 -32zM433 193v314q0 73 -46.5 124t-131.5 51h-170v-307q0 -9 -9 -9
t-9 9v316q0 9 9 9h179q92 0 144 -56.5t52 -136.5v-314q0 -80 -52 -136.5t-144 -56.5h-179q-9 0 -9 9v326q0 9 9 9t9 -9v-317h170q85 0 131.5 51t46.5 124z" />
    <glyph glyph-name="E" unicode="E" horiz-adv-x="472"
d="M76 700h360q9 0 9 -9v-83q0 -9 -9 -9h-267v-192h136q9 0 9 -9v-23q0 -9 -9 -9t-9 9v13h-136q-9 0 -9 9v211q0 9 9 9h267v65h-342v-307q0 -9 -9 -9t-9 9v316q0 9 9 9zM436 0h-360q-9 0 -9 9v326q0 9 9 9t9 -9v-317h342v65h-267q-9 0 -9 9v223q0 9 9 9h136v11q0 9 9 9t9 -9
v-20q0 -9 -9 -9h-136v-205h267q9 0 9 -9v-83q0 -9 -9 -9z" />
    <glyph glyph-name="F" unicode="F" horiz-adv-x="450"
d="M76 700h360q9 0 9 -9v-83q0 -9 -9 -9h-267v-192h136q9 0 9 -9v-23q0 -9 -9 -9t-9 9v13h-136q-9 0 -9 9v211q0 9 9 9h267v65h-342v-307q0 -9 -9 -9t-9 9v316q0 9 9 9zM151 18v297q0 9 9 9h136v11q0 9 9 9t9 -9v-20q0 -9 -9 -9h-136v-297q0 -9 -9 -9h-84q-9 0 -9 9v326
q0 9 9 9t9 -9v-317h66z" />
    <glyph glyph-name="G" unicode="G" horiz-adv-x="477"
d="M333 488v23q0 47 -24 70.5t-58 23.5q-41 0 -68.5 -25t-27.5 -69v-136q0 -9 -9 -9t-9 9v136q0 48 29.5 80t84.5 32q49 0 74.5 -30t25.5 -82v-14h66v15q0 73 -43 123.5t-123 50.5q-79 0 -129.5 -50t-50.5 -124v-137q0 -9 -9 -9t-9 9v137q0 91 58 142t140 51q77 0 130.5 -47
t53.5 -146v-24q0 -9 -9 -9h-84q-9 0 -9 9zM251 275v82q0 9 9 9h168q9 0 9 -9v-169q0 -95 -55 -144t-133 -49q-77 0 -136.5 50t-59.5 143v147q0 9 9 9t9 -9v-147q0 -69 45.5 -121.5t132.5 -52.5q74 0 122 48t48 126v160h-150v-64h75q9 0 9 -9v-86q0 -52 -27 -82t-77 -30
q-55 0 -83.5 32t-28.5 80v146q0 9 9 9t9 -9v-146q0 -43 26.5 -68.5t67.5 -25.5q36 0 61 22.5t25 71.5v77h-75q-9 0 -9 9z" />
    <glyph glyph-name="H" unicode="H" horiz-adv-x="512"
d="M352 388h-192q-9 0 -9 9v285h-66v-307q0 -9 -9 -9t-9 9v316q0 9 9 9h84q9 0 9 -9v-285h174v285q0 9 9 9h84q9 0 9 -9v-316q0 -9 -9 -9t-9 9v307h-66v-285q0 -9 -9 -9zM343 306h-174v-297q0 -9 -9 -9h-84q-9 0 -9 9v326q0 9 9 9t9 -9v-317h66v297q0 9 9 9h192q9 0 9 -9
v-297h66v317q0 9 9 9t9 -9v-326q0 -9 -9 -9h-84q-9 0 -9 9v297z" />
    <glyph glyph-name="I" unicode="I" horiz-adv-x="236"
d="M76 700h84q9 0 9 -9v-316q0 -9 -9 -9t-9 9v307h-66v-307q0 -9 -9 -9t-9 9v316q0 9 9 9zM160 0h-84q-9 0 -9 9v326q0 9 9 9t9 -9v-317h66v317q0 9 9 9t9 -9v-326q0 -9 -9 -9z" />
    <glyph glyph-name="J" unicode="J" horiz-adv-x="450"
d="M290 192v143q0 9 9 9t9 -9v-143q0 -52 -30 -82t-76 -30t-75.5 30t-34.5 81h-71q5 -74 55.5 -125t125.5 -51t123.5 48.5t48.5 127.5v144q0 9 9 9t9 -9v-144q0 -91 -56.5 -142.5t-133.5 -51.5q-86 0 -142.5 59t-56.5 144q0 9 9 9h88q9 0 9 -9q1 -47 26.5 -74.5t66.5 -27.5
q40 0 64 24.5t24 69.5zM308 682v-307q0 -9 -9 -9t-9 9v316q0 9 9 9h84q9 0 9 -9v-316q0 -9 -9 -9t-9 9v307h-66z" />
    <glyph glyph-name="K" unicode="K" horiz-adv-x="495"
d="M280 414l181 268h-81l-210 -316q-5 -9 -11 -9q-8 0 -8 9v316h-66v-307q0 -9 -9 -9t-9 9v316q0 9 9 9h84q9 0 9 -9v-294l195 294q5 9 12 9h101q10 0 10 -8q0 -3 -4 -9l-188 -280q-6 -8 -13 -2q-8 6 -2 13zM314 380l175 -361q4 -8 4 -11q0 -8 -10 -8h-94q-9 0 -13 9
l-148 311l-59 -83v-228q0 -9 -9 -9h-84q-9 0 -9 9v326q0 9 9 9t9 -9v-317h66v214q0 11 4 16l66 94q4 6 9 6q6 0 9 -7l152 -322h78l-172 354q-3 9 5 12q8 4 12 -5z" />
    <glyph glyph-name="L" unicode="L" horiz-adv-x="450"
d="M151 92v243q0 9 9 9t9 -9v-234h267q9 0 9 -9v-83q0 -9 -9 -9h-360q-9 0 -9 9v326q0 9 9 9t9 -9v-317h342v65h-267q-9 0 -9 9zM151 375v307h-66v-307q0 -9 -9 -9t-9 9v316q0 9 9 9h84q9 0 9 -9v-316q0 -9 -9 -9t-9 9z" />
    <glyph glyph-name="M" unicode="M" horiz-adv-x="607"
d="M293 414l-140 268h-68v-307q0 -9 -9 -9t-9 9v316q0 9 9 9h81q7 0 12 -9l134 -258l133 258q4 9 12 9h83q9 0 9 -9v-316q0 -9 -9 -9t-9 9v307h-71l-138 -268q-6 -10 -10 -10t-10 10zM303 272l133 252q6 11 11 11q9 0 9 -13v-504h66v317q0 9 9 9t9 -9v-326q0 -9 -9 -9h-84
q-9 0 -9 9v482l-125 -239q-6 -10 -10 -10t-10 10l-124 236v-479q0 -9 -9 -9h-84q-9 0 -9 9v326q0 9 9 9t9 -9v-317h66v504q0 13 9 13q6 0 11 -11z" />
    <glyph glyph-name="N" unicode="N" horiz-adv-x="527"
d="M376 682v-471q0 -13 -9 -13q-6 0 -9 8l-201 476h-72v-307q0 -9 -9 -9t-9 9v316q0 9 9 9h86q7 0 11 -9l185 -437v437q0 9 9 9h84q3 0 6 -3t3 -6v-316q0 -9 -9 -9t-9 9v307h-66zM354 9l-185 440v-440q0 -9 -9 -9h-84q-9 0 -9 9v326q0 9 9 9t9 -9v-317h66v472q0 13 9 13
q6 0 9 -8l201 -477h72v317q0 9 9 9q3 0 6 -3t3 -6v-326q0 -9 -9 -9h-86q-7 0 -11 9z" />
    <glyph glyph-name="O" unicode="O" horiz-adv-x="490"
d="M53 188v147q0 9 9 9t9 -9v-147q0 -69 44.5 -121.5t128.5 -52.5q76 0 125.5 50t49.5 124v147q0 9 9 9t9 -9v-147q0 -90 -58 -141.5t-135 -51.5q-76 0 -133.5 50t-57.5 143zM53 375v137q0 90 57 141.5t136 51.5q76 0 133.5 -50t57.5 -143v-137q0 -9 -9 -9t-9 9v137
q0 69 -44.5 121.5t-128.5 52.5q-76 0 -125.5 -50t-49.5 -124v-137q0 -9 -9 -9t-9 9zM137 189v322q0 43 22 72t59 38q16 3 16 -9q0 -8 -9 -9q-27 -4 -48.5 -27.5t-21.5 -64.5v-322q0 -41 21.5 -64.5t48.5 -27.5q9 -1 9 -9q0 -12 -16 -9q-37 9 -59 38t-22 72zM353 511v-322
q0 -43 -22 -72t-59 -38q-16 -3 -16 9q0 8 9 9q27 4 48.5 27.5t21.5 64.5v322q0 41 -21.5 64.5t-48.5 27.5q-9 1 -9 9q0 12 16 9q37 -9 59 -38t22 -72z" />
    <glyph glyph-name="P" unicode="P" horiz-adv-x="466"
d="M254 682h-169v-307q0 -9 -9 -9t-9 9v316q0 9 9 9h176q89 0 145 -56t56 -141q0 -84 -57 -140.5t-144 -56.5h-83v-297q0 -9 -9 -9h-84q-9 0 -9 9v326q0 9 9 9t9 -9v-317h66v297q0 9 9 9h94q77 0 128.5 52t51.5 127t-51 127t-129 52zM169 483v-76h85q42 0 70 28t28 68
q0 41 -27.5 68.5t-70.5 27.5h-85v-76q0 -9 -9 -9t-9 9v85q0 9 9 9h94q51 0 84 -33t33 -81t-34 -81.5t-83 -33.5h-94q-9 0 -9 9v86q0 9 9 9t9 -9z" />
    <glyph glyph-name="Q" unicode="Q" horiz-adv-x="490"
d="M137 189v322q0 43 22 72t59 38q16 3 16 -9q0 -8 -9 -9q-27 -4 -48.5 -27.5t-21.5 -64.5v-322q0 -41 21.5 -64.5t48.5 -27.5q9 -1 9 -9q0 -12 -16 -9q-37 9 -59 38t-22 72zM353 511v-322q0 -43 -22 -72t-59 -38q-16 -3 -16 9q0 8 9 9q27 4 48.5 27.5t21.5 64.5v322
q0 41 -21.5 64.5t-48.5 27.5q-9 1 -9 9q0 12 16 9q37 -9 59 -38t22 -72zM224 15q9 0 9 -9q4 -97 90 -97q8 0 19 1l11 1q10 0 10 -8q0 -9 -9 -10q-15 -2 -31 -2q-45 0 -76 25.5t-31 80.5q-65 9 -114 56t-49 135v147q0 9 9 9t9 -9v-147q0 -68 40.5 -117t112.5 -56zM419 375
v137q0 69 -44.5 121.5t-128.5 52.5q-76 0 -125.5 -50t-49.5 -124v-137q0 -9 -9 -9t-9 9v137q0 90 57 141.5t136 51.5q76 0 133.5 -50t57.5 -143v-137q0 -9 -9 -9t-9 9zM437 335v-147q0 -81 -47.5 -131t-117.5 -60q-16 -3 -16 9q0 8 9 9q68 8 111 57t43 116v147q0 9 9 9t9 -9
z" />
    <glyph glyph-name="R" unicode="R" horiz-adv-x="505"
d="M169 483v-76h85q42 0 70 28t28 68q0 41 -27.5 68.5t-70.5 27.5h-85v-76q0 -9 -9 -9t-9 9v85q0 9 9 9h94q51 0 84 -33t33 -81t-34 -81.5t-83 -33.5h-94q-9 0 -9 9v86q0 9 9 9t9 -9zM370 9l-143 302q-3 9 5 12q8 4 12 -5l142 -300h80l-154 305q-3 9 5 12q51 17 84 63
t33 105q0 75 -51 127t-129 52h-169v-307q0 -9 -9 -9t-9 9v316q0 9 9 9h176q89 0 145 -56t56 -141q0 -62 -33 -111t-87 -71l152 -302q4 -8 4 -11q0 -8 -10 -8h-96q-9 0 -13 9zM196 306h-27v-297q0 -9 -9 -9h-84q-9 0 -9 9v326q0 9 9 9t9 -9v-317h66v297q0 9 9 9h36q9 0 9 -9
t-9 -9z" />
    <glyph glyph-name="S" unicode="S" horiz-adv-x="470"
d="M227 320q4 -3 4 -8q0 -8 -9 -8q-2 0 -6 2q-81 46 -123 85.5t-51.5 66t-9.5 64.5q0 74 56.5 128.5t139.5 54.5q81 0 137 -55t56 -138q0 -9 -9 -9h-86q-9 0 -9 9q-1 44 -25 68t-64 24q-41 0 -65.5 -21t-24.5 -61q0 -34 20 -54.5t69 -50.5q4 -3 4 -8q0 -8 -9 -8q-2 0 -6 2
q-53 31 -74.5 55t-21.5 64q0 47 30.5 73.5t77.5 26.5q44 0 73 -26t33 -74h69q-4 70 -54.5 117.5t-120.5 47.5q-73 0 -125 -49t-52 -116q0 -27 4 -43.5t20.5 -41.5t53.5 -53t98 -64zM49 207h88q9 0 9 -9q1 -44 27 -71t66 -27q38 0 64 23t26 64q0 30 -17.5 49.5t-60.5 49.5
q-4 3 -4 8q0 8 9 8q2 0 6 -2q48 -32 66.5 -53.5t18.5 -59.5q0 -48 -31.5 -77t-76.5 -29q-44 0 -75 29.5t-35 78.5h-71q5 -73 56.5 -124t124.5 -51q80 0 130 50.5t50 123.5q0 51 -34.5 96t-133.5 99q-4 3 -4 8q0 8 9 8q2 0 6 -2q100 -54 138 -102t38 -107q0 -83 -58 -138
t-141 -55t-141 59.5t-58 143.5q0 9 9 9z" />
    <glyph glyph-name="T" unicode="T" horiz-adv-x="410"
d="M247 0h-22q-9 0 -9 9t9 9h13v591q0 9 9 9h129v64h-151q-9 0 -9 9t9 9h160q9 0 9 -9v-82q0 -9 -9 -9h-129v-591q0 -9 -9 -9zM185 0h-22q-9 0 -9 9v591h-129q-9 0 -9 9v82q0 9 9 9h160q9 0 9 -9t-9 -9h-151v-64h129q9 0 9 -9v-591h13q9 0 9 -9t-9 -9z" />
    <glyph glyph-name="U" unicode="U" horiz-adv-x="494"
d="M274 79q-16 -3 -16 9q0 8 9 9q27 4 47 27.5t20 62.5v504q0 9 9 9h84q9 0 9 -9v-154q0 -9 -9 -9t-9 9v145h-66v-495q0 -42 -21.5 -70.5t-56.5 -37.5zM58 186v311q0 9 9 9t9 -9v-311q0 -68 44 -120t126 -52q74 0 123 50t49 122v311q0 9 9 9t9 -9v-311q0 -89 -56.5 -140
t-133.5 -51q-75 0 -131.5 49.5t-56.5 141.5zM160 691v-504q0 -39 20 -62.5t47 -27.5q9 -1 9 -9q0 -12 -16 -9q-35 9 -56.5 37.5t-21.5 70.5v495h-66v-145q0 -9 -9 -9t-9 9v154q0 9 9 9h84q9 0 9 -9z" />
    <glyph glyph-name="V" unicode="V" horiz-adv-x="475"
d="M279 0h-84q-8 0 -10 9l-80 324q-2 9 7 11t11 -7l79 -319h70l80 319q2 9 11 7t7 -11l-81 -324q-2 -9 -10 -9zM239 196l118 495q2 9 10 9h85q10 0 7 -10l-79 -317q-2 -9 -11 -7t-7 11l77 305h-65l-126 -523q-2 -9 -9 -9t-9 9l-122 523h-71l76 -305q2 -9 -7 -11t-11 7
l-79 317q-3 10 7 10h92q8 0 10 -9z" />
    <glyph glyph-name="W" unicode="W" horiz-adv-x="751"
d="M737 689l-72 -316q-2 -9 -11 -7t-7 11l70 305h-67l-111 -508q-2 -9 -9 -9t-9 9l-107 508h-13q-9 0 -9 9t9 9h21q8 0 10 -9l98 -475l102 475q2 9 10 9h88q10 0 7 -11zM35 682l69 -305q2 -9 -7 -11t-11 7l-72 316q-3 11 7 11h95q8 0 10 -9l98 -476l102 476q2 9 10 9h21
q9 0 9 -9t-9 -9h-13l-111 -508q-2 -9 -9 -9t-9 9l-107 508h-73zM259 18l111 495q2 9 9 9t9 -9l109 -495h68l73 319q2 9 11 7t7 -11l-74 -324q-2 -9 -10 -9h-82q-8 0 -10 9l-102 463l-102 -463q-2 -9 -10 -9h-88q-8 0 -10 9l-73 324q-2 9 7 11t11 -7l72 -319h74z" />
    <glyph glyph-name="X" unicode="X" horiz-adv-x="508"
d="M301 372l66 131q3 6 9 6t8 -4.5t0 -8.5l-70 -138l171 -339q4 -8 4 -11q0 -8 -10 -8h-91q-8 0 -13 9l-123 255l-122 -255q-4 -9 -13 -9h-88q-10 0 -10 8q0 3 4 11l170 339l-69 138q-2 4 0 8.5t8 4.5t9 -6l67 -132q4 -8 4 -13t-4 -13l-166 -327h72l129 267q5 9 9 9t9 -9
l130 -267h75l-165 328q-4 8 -4 13t4 13zM477 681l-74 -147q-3 -6 -9 -6t-8 4.5t0 8.5l71 141h-72l-121 -249q-4 -9 -9 -9t-9 9l-120 249h-75l71 -141q2 -4 0 -8.5t-8 -4.5t-9 6l-74 147q-4 8 -4 11q0 8 10 8h91q8 0 13 -9l114 -240l115 240q4 9 13 9h88q10 0 10 -8
q0 -3 -4 -11z" />
    <glyph glyph-name="Y" unicode="Y" horiz-adv-x="478"
d="M462 690l-64 -156q-3 -6 -9 -6q-5 0 -7.5 4.5t-0.5 8.5l58 141h-65l-126 -314q-4 -9 -9 -9t-9 9l-122 314h-71l57 -141q2 -4 -0.5 -8.5t-7.5 -4.5q-6 0 -9 6l-61 156q-3 10 7 10h92q6 0 10 -9l114 -298l118 298q4 9 10 9h88q10 0 7 -10zM383 496l-95 -233v-254
q0 -9 -9 -9h-84q-9 0 -9 9v254l-94 233q-2 4 0.5 8.5t7.5 4.5q6 0 9 -6l92 -227q3 -8 3 -16v-242h66v242q0 8 3 16l93 227q3 6 9 6q5 0 7.5 -4.5t0.5 -8.5z" />
    <glyph glyph-name="Z" unicode="Z" horiz-adv-x="461"
d="M415 608l-121 -238q-4 -10 -13 -5q-8 4 -3 13l122 240v64h-335v-64h251q9 0 9 -8q0 -4 -5 -14l-115 -226q-4 -10 -13 -5q-8 4 -3 13l113 222h-246q-9 0 -9 9v82q0 9 9 9h353q9 0 9 -9v-69q0 -8 -3 -14zM275 333l-119 -233h253q9 0 9 -9v-82q0 -9 -9 -9h-360q-9 0 -9 9v69
q0 8 3 14l127 249q4 10 13 5q8 -4 3 -13l-128 -251v-64h342v64h-258q-9 0 -9 8q0 4 5 14l121 237q4 10 13 5q8 -4 3 -13z" />
    <glyph glyph-name="underscore" unicode="_"
d="M369 682h-342v-307q0 -9 -9 -9t-9 9v316q0 9 9 9h360q9 0 9 -9v-316q0 -9 -9 -9t-9 9v307zM333 646h-270v-271q0 -9 -9 -9t-9 9v280q0 9 9 9h288q9 0 9 -9v-280q0 -9 -9 -9t-9 9v271zM297 610h-198v-235q0 -9 -9 -9t-9 9v244q0 9 9 9h216q9 0 9 -9v-244q0 -9 -9 -9t-9 9
v235zM261 574h-126v-199q0 -9 -9 -9t-9 9v208q0 9 9 9h144q9 0 9 -9v-208q0 -9 -9 -9t-9 9v199zM225 538h-54v-163q0 -9 -9 -9t-9 9v172q0 9 9 9h72q9 0 9 -9v-172q0 -9 -9 -9t-9 9v163zM27 18h342v307q0 9 9 9t9 -9v-316q0 -9 -9 -9h-360q-9 0 -9 9v316q0 9 9 9t9 -9v-307z
M63 54h270v271q0 9 9 9t9 -9v-280q0 -9 -9 -9h-288q-9 0 -9 9v280q0 9 9 9t9 -9v-271zM99 90h198v235q0 9 9 9t9 -9v-244q0 -9 -9 -9h-216q-9 0 -9 9v244q0 9 9 9t9 -9v-235zM135 126h126v199q0 9 9 9t9 -9v-208q0 -9 -9 -9h-144q-9 0 -9 9v208q0 9 9 9t9 -9v-199zM171 162
h54v163q0 9 9 9t9 -9v-172q0 -9 -9 -9h-72q-9 0 -9 9v172q0 9 9 9t9 -9v-163zM207 511v-322q0 -9 -9 -9t-9 9v322q0 9 9 9t9 -9z" />
    <glyph glyph-name="a" unicode="a"
d="M369 682h-342v-307q0 -9 -9 -9t-9 9v316q0 9 9 9h360q9 0 9 -9v-316q0 -9 -9 -9t-9 9v307zM333 646h-270v-271q0 -9 -9 -9t-9 9v280q0 9 9 9h288q9 0 9 -9v-280q0 -9 -9 -9t-9 9v271zM297 610h-198v-235q0 -9 -9 -9t-9 9v244q0 9 9 9h216q9 0 9 -9v-244q0 -9 -9 -9t-9 9
v235zM261 574h-126v-199q0 -9 -9 -9t-9 9v208q0 9 9 9h144q9 0 9 -9v-208q0 -9 -9 -9t-9 9v199zM225 538h-54v-163q0 -9 -9 -9t-9 9v172q0 9 9 9h72q9 0 9 -9v-172q0 -9 -9 -9t-9 9v163zM27 18h342v307q0 9 9 9t9 -9v-316q0 -9 -9 -9h-360q-9 0 -9 9v316q0 9 9 9t9 -9v-307z
M63 54h270v271q0 9 9 9t9 -9v-280q0 -9 -9 -9h-288q-9 0 -9 9v280q0 9 9 9t9 -9v-271zM99 90h198v235q0 9 9 9t9 -9v-244q0 -9 -9 -9h-216q-9 0 -9 9v244q0 9 9 9t9 -9v-235zM135 126h126v199q0 9 9 9t9 -9v-208q0 -9 -9 -9h-144q-9 0 -9 9v208q0 9 9 9t9 -9v-199zM171 162
h54v163q0 9 9 9t9 -9v-172q0 -9 -9 -9h-72q-9 0 -9 9v172q0 9 9 9t9 -9v-163zM207 511v-322q0 -9 -9 -9t-9 9v322q0 9 9 9t9 -9z" />
    <glyph glyph-name="b" unicode="b"
d="M369 682h-342v-307q0 -9 -9 -9t-9 9v316q0 9 9 9h360q9 0 9 -9v-316q0 -9 -9 -9t-9 9v307zM333 646h-270v-271q0 -9 -9 -9t-9 9v280q0 9 9 9h288q9 0 9 -9v-280q0 -9 -9 -9t-9 9v271zM297 610h-198v-235q0 -9 -9 -9t-9 9v244q0 9 9 9h216q9 0 9 -9v-244q0 -9 -9 -9t-9 9
v235zM261 574h-126v-199q0 -9 -9 -9t-9 9v208q0 9 9 9h144q9 0 9 -9v-208q0 -9 -9 -9t-9 9v199zM225 538h-54v-163q0 -9 -9 -9t-9 9v172q0 9 9 9h72q9 0 9 -9v-172q0 -9 -9 -9t-9 9v163zM27 18h342v307q0 9 9 9t9 -9v-316q0 -9 -9 -9h-360q-9 0 -9 9v316q0 9 9 9t9 -9v-307z
M63 54h270v271q0 9 9 9t9 -9v-280q0 -9 -9 -9h-288q-9 0 -9 9v280q0 9 9 9t9 -9v-271zM99 90h198v235q0 9 9 9t9 -9v-244q0 -9 -9 -9h-216q-9 0 -9 9v244q0 9 9 9t9 -9v-235zM135 126h126v199q0 9 9 9t9 -9v-208q0 -9 -9 -9h-144q-9 0 -9 9v208q0 9 9 9t9 -9v-199zM171 162
h54v163q0 9 9 9t9 -9v-172q0 -9 -9 -9h-72q-9 0 -9 9v172q0 9 9 9t9 -9v-163zM207 511v-322q0 -9 -9 -9t-9 9v322q0 9 9 9t9 -9z" />
    <glyph glyph-name="c" unicode="c"
d="M369 682h-342v-307q0 -9 -9 -9t-9 9v316q0 9 9 9h360q9 0 9 -9v-316q0 -9 -9 -9t-9 9v307zM333 646h-270v-271q0 -9 -9 -9t-9 9v280q0 9 9 9h288q9 0 9 -9v-280q0 -9 -9 -9t-9 9v271zM297 610h-198v-235q0 -9 -9 -9t-9 9v244q0 9 9 9h216q9 0 9 -9v-244q0 -9 -9 -9t-9 9
v235zM261 574h-126v-199q0 -9 -9 -9t-9 9v208q0 9 9 9h144q9 0 9 -9v-208q0 -9 -9 -9t-9 9v199zM225 538h-54v-163q0 -9 -9 -9t-9 9v172q0 9 9 9h72q9 0 9 -9v-172q0 -9 -9 -9t-9 9v163zM27 18h342v307q0 9 9 9t9 -9v-316q0 -9 -9 -9h-360q-9 0 -9 9v316q0 9 9 9t9 -9v-307z
M63 54h270v271q0 9 9 9t9 -9v-280q0 -9 -9 -9h-288q-9 0 -9 9v280q0 9 9 9t9 -9v-271zM99 90h198v235q0 9 9 9t9 -9v-244q0 -9 -9 -9h-216q-9 0 -9 9v244q0 9 9 9t9 -9v-235zM135 126h126v199q0 9 9 9t9 -9v-208q0 -9 -9 -9h-144q-9 0 -9 9v208q0 9 9 9t9 -9v-199zM171 162
h54v163q0 9 9 9t9 -9v-172q0 -9 -9 -9h-72q-9 0 -9 9v172q0 9 9 9t9 -9v-163zM207 511v-322q0 -9 -9 -9t-9 9v322q0 9 9 9t9 -9z" />
    <glyph glyph-name="d" unicode="d"
d="M369 682h-342v-307q0 -9 -9 -9t-9 9v316q0 9 9 9h360q9 0 9 -9v-316q0 -9 -9 -9t-9 9v307zM333 646h-270v-271q0 -9 -9 -9t-9 9v280q0 9 9 9h288q9 0 9 -9v-280q0 -9 -9 -9t-9 9v271zM297 610h-198v-235q0 -9 -9 -9t-9 9v244q0 9 9 9h216q9 0 9 -9v-244q0 -9 -9 -9t-9 9
v235zM261 574h-126v-199q0 -9 -9 -9t-9 9v208q0 9 9 9h144q9 0 9 -9v-208q0 -9 -9 -9t-9 9v199zM225 538h-54v-163q0 -9 -9 -9t-9 9v172q0 9 9 9h72q9 0 9 -9v-172q0 -9 -9 -9t-9 9v163zM27 18h342v307q0 9 9 9t9 -9v-316q0 -9 -9 -9h-360q-9 0 -9 9v316q0 9 9 9t9 -9v-307z
M63 54h270v271q0 9 9 9t9 -9v-280q0 -9 -9 -9h-288q-9 0 -9 9v280q0 9 9 9t9 -9v-271zM99 90h198v235q0 9 9 9t9 -9v-244q0 -9 -9 -9h-216q-9 0 -9 9v244q0 9 9 9t9 -9v-235zM135 126h126v199q0 9 9 9t9 -9v-208q0 -9 -9 -9h-144q-9 0 -9 9v208q0 9 9 9t9 -9v-199zM171 162
h54v163q0 9 9 9t9 -9v-172q0 -9 -9 -9h-72q-9 0 -9 9v172q0 9 9 9t9 -9v-163zM207 511v-322q0 -9 -9 -9t-9 9v322q0 9 9 9t9 -9z" />
    <glyph glyph-name="e" unicode="e"
d="M369 682h-342v-307q0 -9 -9 -9t-9 9v316q0 9 9 9h360q9 0 9 -9v-316q0 -9 -9 -9t-9 9v307zM333 646h-270v-271q0 -9 -9 -9t-9 9v280q0 9 9 9h288q9 0 9 -9v-280q0 -9 -9 -9t-9 9v271zM297 610h-198v-235q0 -9 -9 -9t-9 9v244q0 9 9 9h216q9 0 9 -9v-244q0 -9 -9 -9t-9 9
v235zM261 574h-126v-199q0 -9 -9 -9t-9 9v208q0 9 9 9h144q9 0 9 -9v-208q0 -9 -9 -9t-9 9v199zM225 538h-54v-163q0 -9 -9 -9t-9 9v172q0 9 9 9h72q9 0 9 -9v-172q0 -9 -9 -9t-9 9v163zM27 18h342v307q0 9 9 9t9 -9v-316q0 -9 -9 -9h-360q-9 0 -9 9v316q0 9 9 9t9 -9v-307z
M63 54h270v271q0 9 9 9t9 -9v-280q0 -9 -9 -9h-288q-9 0 -9 9v280q0 9 9 9t9 -9v-271zM99 90h198v235q0 9 9 9t9 -9v-244q0 -9 -9 -9h-216q-9 0 -9 9v244q0 9 9 9t9 -9v-235zM135 126h126v199q0 9 9 9t9 -9v-208q0 -9 -9 -9h-144q-9 0 -9 9v208q0 9 9 9t9 -9v-199zM171 162
h54v163q0 9 9 9t9 -9v-172q0 -9 -9 -9h-72q-9 0 -9 9v172q0 9 9 9t9 -9v-163zM207 511v-322q0 -9 -9 -9t-9 9v322q0 9 9 9t9 -9z" />
    <glyph glyph-name="f" unicode="f"
d="M369 682h-342v-307q0 -9 -9 -9t-9 9v316q0 9 9 9h360q9 0 9 -9v-316q0 -9 -9 -9t-9 9v307zM333 646h-270v-271q0 -9 -9 -9t-9 9v280q0 9 9 9h288q9 0 9 -9v-280q0 -9 -9 -9t-9 9v271zM297 610h-198v-235q0 -9 -9 -9t-9 9v244q0 9 9 9h216q9 0 9 -9v-244q0 -9 -9 -9t-9 9
v235zM261 574h-126v-199q0 -9 -9 -9t-9 9v208q0 9 9 9h144q9 0 9 -9v-208q0 -9 -9 -9t-9 9v199zM225 538h-54v-163q0 -9 -9 -9t-9 9v172q0 9 9 9h72q9 0 9 -9v-172q0 -9 -9 -9t-9 9v163zM27 18h342v307q0 9 9 9t9 -9v-316q0 -9 -9 -9h-360q-9 0 -9 9v316q0 9 9 9t9 -9v-307z
M63 54h270v271q0 9 9 9t9 -9v-280q0 -9 -9 -9h-288q-9 0 -9 9v280q0 9 9 9t9 -9v-271zM99 90h198v235q0 9 9 9t9 -9v-244q0 -9 -9 -9h-216q-9 0 -9 9v244q0 9 9 9t9 -9v-235zM135 126h126v199q0 9 9 9t9 -9v-208q0 -9 -9 -9h-144q-9 0 -9 9v208q0 9 9 9t9 -9v-199zM171 162
h54v163q0 9 9 9t9 -9v-172q0 -9 -9 -9h-72q-9 0 -9 9v172q0 9 9 9t9 -9v-163zM207 511v-322q0 -9 -9 -9t-9 9v322q0 9 9 9t9 -9z" />
    <glyph glyph-name="g" unicode="g"
d="M369 682h-342v-307q0 -9 -9 -9t-9 9v316q0 9 9 9h360q9 0 9 -9v-316q0 -9 -9 -9t-9 9v307zM333 646h-270v-271q0 -9 -9 -9t-9 9v280q0 9 9 9h288q9 0 9 -9v-280q0 -9 -9 -9t-9 9v271zM297 610h-198v-235q0 -9 -9 -9t-9 9v244q0 9 9 9h216q9 0 9 -9v-244q0 -9 -9 -9t-9 9
v235zM261 574h-126v-199q0 -9 -9 -9t-9 9v208q0 9 9 9h144q9 0 9 -9v-208q0 -9 -9 -9t-9 9v199zM225 538h-54v-163q0 -9 -9 -9t-9 9v172q0 9 9 9h72q9 0 9 -9v-172q0 -9 -9 -9t-9 9v163zM27 18h342v307q0 9 9 9t9 -9v-316q0 -9 -9 -9h-360q-9 0 -9 9v316q0 9 9 9t9 -9v-307z
M63 54h270v271q0 9 9 9t9 -9v-280q0 -9 -9 -9h-288q-9 0 -9 9v280q0 9 9 9t9 -9v-271zM99 90h198v235q0 9 9 9t9 -9v-244q0 -9 -9 -9h-216q-9 0 -9 9v244q0 9 9 9t9 -9v-235zM135 126h126v199q0 9 9 9t9 -9v-208q0 -9 -9 -9h-144q-9 0 -9 9v208q0 9 9 9t9 -9v-199zM171 162
h54v163q0 9 9 9t9 -9v-172q0 -9 -9 -9h-72q-9 0 -9 9v172q0 9 9 9t9 -9v-163zM207 511v-322q0 -9 -9 -9t-9 9v322q0 9 9 9t9 -9z" />
    <glyph glyph-name="h" unicode="h"
d="M369 682h-342v-307q0 -9 -9 -9t-9 9v316q0 9 9 9h360q9 0 9 -9v-316q0 -9 -9 -9t-9 9v307zM333 646h-270v-271q0 -9 -9 -9t-9 9v280q0 9 9 9h288q9 0 9 -9v-280q0 -9 -9 -9t-9 9v271zM297 610h-198v-235q0 -9 -9 -9t-9 9v244q0 9 9 9h216q9 0 9 -9v-244q0 -9 -9 -9t-9 9
v235zM261 574h-126v-199q0 -9 -9 -9t-9 9v208q0 9 9 9h144q9 0 9 -9v-208q0 -9 -9 -9t-9 9v199zM225 538h-54v-163q0 -9 -9 -9t-9 9v172q0 9 9 9h72q9 0 9 -9v-172q0 -9 -9 -9t-9 9v163zM27 18h342v307q0 9 9 9t9 -9v-316q0 -9 -9 -9h-360q-9 0 -9 9v316q0 9 9 9t9 -9v-307z
M63 54h270v271q0 9 9 9t9 -9v-280q0 -9 -9 -9h-288q-9 0 -9 9v280q0 9 9 9t9 -9v-271zM99 90h198v235q0 9 9 9t9 -9v-244q0 -9 -9 -9h-216q-9 0 -9 9v244q0 9 9 9t9 -9v-235zM135 126h126v199q0 9 9 9t9 -9v-208q0 -9 -9 -9h-144q-9 0 -9 9v208q0 9 9 9t9 -9v-199zM171 162
h54v163q0 9 9 9t9 -9v-172q0 -9 -9 -9h-72q-9 0 -9 9v172q0 9 9 9t9 -9v-163zM207 511v-322q0 -9 -9 -9t-9 9v322q0 9 9 9t9 -9z" />
    <glyph glyph-name="i" unicode="i"
d="M369 682h-342v-307q0 -9 -9 -9t-9 9v316q0 9 9 9h360q9 0 9 -9v-316q0 -9 -9 -9t-9 9v307zM333 646h-270v-271q0 -9 -9 -9t-9 9v280q0 9 9 9h288q9 0 9 -9v-280q0 -9 -9 -9t-9 9v271zM297 610h-198v-235q0 -9 -9 -9t-9 9v244q0 9 9 9h216q9 0 9 -9v-244q0 -9 -9 -9t-9 9
v235zM261 574h-126v-199q0 -9 -9 -9t-9 9v208q0 9 9 9h144q9 0 9 -9v-208q0 -9 -9 -9t-9 9v199zM225 538h-54v-163q0 -9 -9 -9t-9 9v172q0 9 9 9h72q9 0 9 -9v-172q0 -9 -9 -9t-9 9v163zM27 18h342v307q0 9 9 9t9 -9v-316q0 -9 -9 -9h-360q-9 0 -9 9v316q0 9 9 9t9 -9v-307z
M63 54h270v271q0 9 9 9t9 -9v-280q0 -9 -9 -9h-288q-9 0 -9 9v280q0 9 9 9t9 -9v-271zM99 90h198v235q0 9 9 9t9 -9v-244q0 -9 -9 -9h-216q-9 0 -9 9v244q0 9 9 9t9 -9v-235zM135 126h126v199q0 9 9 9t9 -9v-208q0 -9 -9 -9h-144q-9 0 -9 9v208q0 9 9 9t9 -9v-199zM171 162
h54v163q0 9 9 9t9 -9v-172q0 -9 -9 -9h-72q-9 0 -9 9v172q0 9 9 9t9 -9v-163zM207 511v-322q0 -9 -9 -9t-9 9v322q0 9 9 9t9 -9z" />
    <glyph glyph-name="j" unicode="j"
d="M369 682h-342v-307q0 -9 -9 -9t-9 9v316q0 9 9 9h360q9 0 9 -9v-316q0 -9 -9 -9t-9 9v307zM333 646h-270v-271q0 -9 -9 -9t-9 9v280q0 9 9 9h288q9 0 9 -9v-280q0 -9 -9 -9t-9 9v271zM297 610h-198v-235q0 -9 -9 -9t-9 9v244q0 9 9 9h216q9 0 9 -9v-244q0 -9 -9 -9t-9 9
v235zM261 574h-126v-199q0 -9 -9 -9t-9 9v208q0 9 9 9h144q9 0 9 -9v-208q0 -9 -9 -9t-9 9v199zM225 538h-54v-163q0 -9 -9 -9t-9 9v172q0 9 9 9h72q9 0 9 -9v-172q0 -9 -9 -9t-9 9v163zM27 18h342v307q0 9 9 9t9 -9v-316q0 -9 -9 -9h-360q-9 0 -9 9v316q0 9 9 9t9 -9v-307z
M63 54h270v271q0 9 9 9t9 -9v-280q0 -9 -9 -9h-288q-9 0 -9 9v280q0 9 9 9t9 -9v-271zM99 90h198v235q0 9 9 9t9 -9v-244q0 -9 -9 -9h-216q-9 0 -9 9v244q0 9 9 9t9 -9v-235zM135 126h126v199q0 9 9 9t9 -9v-208q0 -9 -9 -9h-144q-9 0 -9 9v208q0 9 9 9t9 -9v-199zM171 162
h54v163q0 9 9 9t9 -9v-172q0 -9 -9 -9h-72q-9 0 -9 9v172q0 9 9 9t9 -9v-163zM207 511v-322q0 -9 -9 -9t-9 9v322q0 9 9 9t9 -9z" />
    <glyph glyph-name="k" unicode="k"
d="M369 682h-342v-307q0 -9 -9 -9t-9 9v316q0 9 9 9h360q9 0 9 -9v-316q0 -9 -9 -9t-9 9v307zM333 646h-270v-271q0 -9 -9 -9t-9 9v280q0 9 9 9h288q9 0 9 -9v-280q0 -9 -9 -9t-9 9v271zM297 610h-198v-235q0 -9 -9 -9t-9 9v244q0 9 9 9h216q9 0 9 -9v-244q0 -9 -9 -9t-9 9
v235zM261 574h-126v-199q0 -9 -9 -9t-9 9v208q0 9 9 9h144q9 0 9 -9v-208q0 -9 -9 -9t-9 9v199zM225 538h-54v-163q0 -9 -9 -9t-9 9v172q0 9 9 9h72q9 0 9 -9v-172q0 -9 -9 -9t-9 9v163zM27 18h342v307q0 9 9 9t9 -9v-316q0 -9 -9 -9h-360q-9 0 -9 9v316q0 9 9 9t9 -9v-307z
M63 54h270v271q0 9 9 9t9 -9v-280q0 -9 -9 -9h-288q-9 0 -9 9v280q0 9 9 9t9 -9v-271zM99 90h198v235q0 9 9 9t9 -9v-244q0 -9 -9 -9h-216q-9 0 -9 9v244q0 9 9 9t9 -9v-235zM135 126h126v199q0 9 9 9t9 -9v-208q0 -9 -9 -9h-144q-9 0 -9 9v208q0 9 9 9t9 -9v-199zM171 162
h54v163q0 9 9 9t9 -9v-172q0 -9 -9 -9h-72q-9 0 -9 9v172q0 9 9 9t9 -9v-163zM207 511v-322q0 -9 -9 -9t-9 9v322q0 9 9 9t9 -9z" />
    <glyph glyph-name="l" unicode="l"
d="M369 682h-342v-307q0 -9 -9 -9t-9 9v316q0 9 9 9h360q9 0 9 -9v-316q0 -9 -9 -9t-9 9v307zM333 646h-270v-271q0 -9 -9 -9t-9 9v280q0 9 9 9h288q9 0 9 -9v-280q0 -9 -9 -9t-9 9v271zM297 610h-198v-235q0 -9 -9 -9t-9 9v244q0 9 9 9h216q9 0 9 -9v-244q0 -9 -9 -9t-9 9
v235zM261 574h-126v-199q0 -9 -9 -9t-9 9v208q0 9 9 9h144q9 0 9 -9v-208q0 -9 -9 -9t-9 9v199zM225 538h-54v-163q0 -9 -9 -9t-9 9v172q0 9 9 9h72q9 0 9 -9v-172q0 -9 -9 -9t-9 9v163zM27 18h342v307q0 9 9 9t9 -9v-316q0 -9 -9 -9h-360q-9 0 -9 9v316q0 9 9 9t9 -9v-307z
M63 54h270v271q0 9 9 9t9 -9v-280q0 -9 -9 -9h-288q-9 0 -9 9v280q0 9 9 9t9 -9v-271zM99 90h198v235q0 9 9 9t9 -9v-244q0 -9 -9 -9h-216q-9 0 -9 9v244q0 9 9 9t9 -9v-235zM135 126h126v199q0 9 9 9t9 -9v-208q0 -9 -9 -9h-144q-9 0 -9 9v208q0 9 9 9t9 -9v-199zM171 162
h54v163q0 9 9 9t9 -9v-172q0 -9 -9 -9h-72q-9 0 -9 9v172q0 9 9 9t9 -9v-163zM207 511v-322q0 -9 -9 -9t-9 9v322q0 9 9 9t9 -9z" />
    <glyph glyph-name="m" unicode="m"
d="M369 682h-342v-307q0 -9 -9 -9t-9 9v316q0 9 9 9h360q9 0 9 -9v-316q0 -9 -9 -9t-9 9v307zM333 646h-270v-271q0 -9 -9 -9t-9 9v280q0 9 9 9h288q9 0 9 -9v-280q0 -9 -9 -9t-9 9v271zM297 610h-198v-235q0 -9 -9 -9t-9 9v244q0 9 9 9h216q9 0 9 -9v-244q0 -9 -9 -9t-9 9
v235zM261 574h-126v-199q0 -9 -9 -9t-9 9v208q0 9 9 9h144q9 0 9 -9v-208q0 -9 -9 -9t-9 9v199zM225 538h-54v-163q0 -9 -9 -9t-9 9v172q0 9 9 9h72q9 0 9 -9v-172q0 -9 -9 -9t-9 9v163zM27 18h342v307q0 9 9 9t9 -9v-316q0 -9 -9 -9h-360q-9 0 -9 9v316q0 9 9 9t9 -9v-307z
M63 54h270v271q0 9 9 9t9 -9v-280q0 -9 -9 -9h-288q-9 0 -9 9v280q0 9 9 9t9 -9v-271zM99 90h198v235q0 9 9 9t9 -9v-244q0 -9 -9 -9h-216q-9 0 -9 9v244q0 9 9 9t9 -9v-235zM135 126h126v199q0 9 9 9t9 -9v-208q0 -9 -9 -9h-144q-9 0 -9 9v208q0 9 9 9t9 -9v-199zM171 162
h54v163q0 9 9 9t9 -9v-172q0 -9 -9 -9h-72q-9 0 -9 9v172q0 9 9 9t9 -9v-163zM207 511v-322q0 -9 -9 -9t-9 9v322q0 9 9 9t9 -9z" />
    <glyph glyph-name="n" unicode="n"
d="M369 682h-342v-307q0 -9 -9 -9t-9 9v316q0 9 9 9h360q9 0 9 -9v-316q0 -9 -9 -9t-9 9v307zM333 646h-270v-271q0 -9 -9 -9t-9 9v280q0 9 9 9h288q9 0 9 -9v-280q0 -9 -9 -9t-9 9v271zM297 610h-198v-235q0 -9 -9 -9t-9 9v244q0 9 9 9h216q9 0 9 -9v-244q0 -9 -9 -9t-9 9
v235zM261 574h-126v-199q0 -9 -9 -9t-9 9v208q0 9 9 9h144q9 0 9 -9v-208q0 -9 -9 -9t-9 9v199zM225 538h-54v-163q0 -9 -9 -9t-9 9v172q0 9 9 9h72q9 0 9 -9v-172q0 -9 -9 -9t-9 9v163zM27 18h342v307q0 9 9 9t9 -9v-316q0 -9 -9 -9h-360q-9 0 -9 9v316q0 9 9 9t9 -9v-307z
M63 54h270v271q0 9 9 9t9 -9v-280q0 -9 -9 -9h-288q-9 0 -9 9v280q0 9 9 9t9 -9v-271zM99 90h198v235q0 9 9 9t9 -9v-244q0 -9 -9 -9h-216q-9 0 -9 9v244q0 9 9 9t9 -9v-235zM135 126h126v199q0 9 9 9t9 -9v-208q0 -9 -9 -9h-144q-9 0 -9 9v208q0 9 9 9t9 -9v-199zM171 162
h54v163q0 9 9 9t9 -9v-172q0 -9 -9 -9h-72q-9 0 -9 9v172q0 9 9 9t9 -9v-163zM207 511v-322q0 -9 -9 -9t-9 9v322q0 9 9 9t9 -9z" />
    <glyph glyph-name="o" unicode="o"
d="M369 682h-342v-307q0 -9 -9 -9t-9 9v316q0 9 9 9h360q9 0 9 -9v-316q0 -9 -9 -9t-9 9v307zM333 646h-270v-271q0 -9 -9 -9t-9 9v280q0 9 9 9h288q9 0 9 -9v-280q0 -9 -9 -9t-9 9v271zM297 610h-198v-235q0 -9 -9 -9t-9 9v244q0 9 9 9h216q9 0 9 -9v-244q0 -9 -9 -9t-9 9
v235zM261 574h-126v-199q0 -9 -9 -9t-9 9v208q0 9 9 9h144q9 0 9 -9v-208q0 -9 -9 -9t-9 9v199zM225 538h-54v-163q0 -9 -9 -9t-9 9v172q0 9 9 9h72q9 0 9 -9v-172q0 -9 -9 -9t-9 9v163zM27 18h342v307q0 9 9 9t9 -9v-316q0 -9 -9 -9h-360q-9 0 -9 9v316q0 9 9 9t9 -9v-307z
M63 54h270v271q0 9 9 9t9 -9v-280q0 -9 -9 -9h-288q-9 0 -9 9v280q0 9 9 9t9 -9v-271zM99 90h198v235q0 9 9 9t9 -9v-244q0 -9 -9 -9h-216q-9 0 -9 9v244q0 9 9 9t9 -9v-235zM135 126h126v199q0 9 9 9t9 -9v-208q0 -9 -9 -9h-144q-9 0 -9 9v208q0 9 9 9t9 -9v-199zM171 162
h54v163q0 9 9 9t9 -9v-172q0 -9 -9 -9h-72q-9 0 -9 9v172q0 9 9 9t9 -9v-163zM207 511v-322q0 -9 -9 -9t-9 9v322q0 9 9 9t9 -9z" />
    <glyph glyph-name="p" unicode="p"
d="M369 682h-342v-307q0 -9 -9 -9t-9 9v316q0 9 9 9h360q9 0 9 -9v-316q0 -9 -9 -9t-9 9v307zM333 646h-270v-271q0 -9 -9 -9t-9 9v280q0 9 9 9h288q9 0 9 -9v-280q0 -9 -9 -9t-9 9v271zM297 610h-198v-235q0 -9 -9 -9t-9 9v244q0 9 9 9h216q9 0 9 -9v-244q0 -9 -9 -9t-9 9
v235zM261 574h-126v-199q0 -9 -9 -9t-9 9v208q0 9 9 9h144q9 0 9 -9v-208q0 -9 -9 -9t-9 9v199zM225 538h-54v-163q0 -9 -9 -9t-9 9v172q0 9 9 9h72q9 0 9 -9v-172q0 -9 -9 -9t-9 9v163zM27 18h342v307q0 9 9 9t9 -9v-316q0 -9 -9 -9h-360q-9 0 -9 9v316q0 9 9 9t9 -9v-307z
M63 54h270v271q0 9 9 9t9 -9v-280q0 -9 -9 -9h-288q-9 0 -9 9v280q0 9 9 9t9 -9v-271zM99 90h198v235q0 9 9 9t9 -9v-244q0 -9 -9 -9h-216q-9 0 -9 9v244q0 9 9 9t9 -9v-235zM135 126h126v199q0 9 9 9t9 -9v-208q0 -9 -9 -9h-144q-9 0 -9 9v208q0 9 9 9t9 -9v-199zM171 162
h54v163q0 9 9 9t9 -9v-172q0 -9 -9 -9h-72q-9 0 -9 9v172q0 9 9 9t9 -9v-163zM207 511v-322q0 -9 -9 -9t-9 9v322q0 9 9 9t9 -9z" />
    <glyph glyph-name="q" unicode="q"
d="M369 682h-342v-307q0 -9 -9 -9t-9 9v316q0 9 9 9h360q9 0 9 -9v-316q0 -9 -9 -9t-9 9v307zM333 646h-270v-271q0 -9 -9 -9t-9 9v280q0 9 9 9h288q9 0 9 -9v-280q0 -9 -9 -9t-9 9v271zM297 610h-198v-235q0 -9 -9 -9t-9 9v244q0 9 9 9h216q9 0 9 -9v-244q0 -9 -9 -9t-9 9
v235zM261 574h-126v-199q0 -9 -9 -9t-9 9v208q0 9 9 9h144q9 0 9 -9v-208q0 -9 -9 -9t-9 9v199zM225 538h-54v-163q0 -9 -9 -9t-9 9v172q0 9 9 9h72q9 0 9 -9v-172q0 -9 -9 -9t-9 9v163zM27 18h342v307q0 9 9 9t9 -9v-316q0 -9 -9 -9h-360q-9 0 -9 9v316q0 9 9 9t9 -9v-307z
M63 54h270v271q0 9 9 9t9 -9v-280q0 -9 -9 -9h-288q-9 0 -9 9v280q0 9 9 9t9 -9v-271zM99 90h198v235q0 9 9 9t9 -9v-244q0 -9 -9 -9h-216q-9 0 -9 9v244q0 9 9 9t9 -9v-235zM135 126h126v199q0 9 9 9t9 -9v-208q0 -9 -9 -9h-144q-9 0 -9 9v208q0 9 9 9t9 -9v-199zM171 162
h54v163q0 9 9 9t9 -9v-172q0 -9 -9 -9h-72q-9 0 -9 9v172q0 9 9 9t9 -9v-163zM207 511v-322q0 -9 -9 -9t-9 9v322q0 9 9 9t9 -9z" />
    <glyph glyph-name="r" unicode="r"
d="M369 682h-342v-307q0 -9 -9 -9t-9 9v316q0 9 9 9h360q9 0 9 -9v-316q0 -9 -9 -9t-9 9v307zM333 646h-270v-271q0 -9 -9 -9t-9 9v280q0 9 9 9h288q9 0 9 -9v-280q0 -9 -9 -9t-9 9v271zM297 610h-198v-235q0 -9 -9 -9t-9 9v244q0 9 9 9h216q9 0 9 -9v-244q0 -9 -9 -9t-9 9
v235zM261 574h-126v-199q0 -9 -9 -9t-9 9v208q0 9 9 9h144q9 0 9 -9v-208q0 -9 -9 -9t-9 9v199zM225 538h-54v-163q0 -9 -9 -9t-9 9v172q0 9 9 9h72q9 0 9 -9v-172q0 -9 -9 -9t-9 9v163zM27 18h342v307q0 9 9 9t9 -9v-316q0 -9 -9 -9h-360q-9 0 -9 9v316q0 9 9 9t9 -9v-307z
M63 54h270v271q0 9 9 9t9 -9v-280q0 -9 -9 -9h-288q-9 0 -9 9v280q0 9 9 9t9 -9v-271zM99 90h198v235q0 9 9 9t9 -9v-244q0 -9 -9 -9h-216q-9 0 -9 9v244q0 9 9 9t9 -9v-235zM135 126h126v199q0 9 9 9t9 -9v-208q0 -9 -9 -9h-144q-9 0 -9 9v208q0 9 9 9t9 -9v-199zM171 162
h54v163q0 9 9 9t9 -9v-172q0 -9 -9 -9h-72q-9 0 -9 9v172q0 9 9 9t9 -9v-163zM207 511v-322q0 -9 -9 -9t-9 9v322q0 9 9 9t9 -9z" />
    <glyph glyph-name="s" unicode="s"
d="M369 682h-342v-307q0 -9 -9 -9t-9 9v316q0 9 9 9h360q9 0 9 -9v-316q0 -9 -9 -9t-9 9v307zM333 646h-270v-271q0 -9 -9 -9t-9 9v280q0 9 9 9h288q9 0 9 -9v-280q0 -9 -9 -9t-9 9v271zM297 610h-198v-235q0 -9 -9 -9t-9 9v244q0 9 9 9h216q9 0 9 -9v-244q0 -9 -9 -9t-9 9
v235zM261 574h-126v-199q0 -9 -9 -9t-9 9v208q0 9 9 9h144q9 0 9 -9v-208q0 -9 -9 -9t-9 9v199zM225 538h-54v-163q0 -9 -9 -9t-9 9v172q0 9 9 9h72q9 0 9 -9v-172q0 -9 -9 -9t-9 9v163zM27 18h342v307q0 9 9 9t9 -9v-316q0 -9 -9 -9h-360q-9 0 -9 9v316q0 9 9 9t9 -9v-307z
M63 54h270v271q0 9 9 9t9 -9v-280q0 -9 -9 -9h-288q-9 0 -9 9v280q0 9 9 9t9 -9v-271zM99 90h198v235q0 9 9 9t9 -9v-244q0 -9 -9 -9h-216q-9 0 -9 9v244q0 9 9 9t9 -9v-235zM135 126h126v199q0 9 9 9t9 -9v-208q0 -9 -9 -9h-144q-9 0 -9 9v208q0 9 9 9t9 -9v-199zM171 162
h54v163q0 9 9 9t9 -9v-172q0 -9 -9 -9h-72q-9 0 -9 9v172q0 9 9 9t9 -9v-163zM207 511v-322q0 -9 -9 -9t-9 9v322q0 9 9 9t9 -9z" />
    <glyph glyph-name="t" unicode="t"
d="M369 682h-342v-307q0 -9 -9 -9t-9 9v316q0 9 9 9h360q9 0 9 -9v-316q0 -9 -9 -9t-9 9v307zM333 646h-270v-271q0 -9 -9 -9t-9 9v280q0 9 9 9h288q9 0 9 -9v-280q0 -9 -9 -9t-9 9v271zM297 610h-198v-235q0 -9 -9 -9t-9 9v244q0 9 9 9h216q9 0 9 -9v-244q0 -9 -9 -9t-9 9
v235zM261 574h-126v-199q0 -9 -9 -9t-9 9v208q0 9 9 9h144q9 0 9 -9v-208q0 -9 -9 -9t-9 9v199zM225 538h-54v-163q0 -9 -9 -9t-9 9v172q0 9 9 9h72q9 0 9 -9v-172q0 -9 -9 -9t-9 9v163zM27 18h342v307q0 9 9 9t9 -9v-316q0 -9 -9 -9h-360q-9 0 -9 9v316q0 9 9 9t9 -9v-307z
M63 54h270v271q0 9 9 9t9 -9v-280q0 -9 -9 -9h-288q-9 0 -9 9v280q0 9 9 9t9 -9v-271zM99 90h198v235q0 9 9 9t9 -9v-244q0 -9 -9 -9h-216q-9 0 -9 9v244q0 9 9 9t9 -9v-235zM135 126h126v199q0 9 9 9t9 -9v-208q0 -9 -9 -9h-144q-9 0 -9 9v208q0 9 9 9t9 -9v-199zM171 162
h54v163q0 9 9 9t9 -9v-172q0 -9 -9 -9h-72q-9 0 -9 9v172q0 9 9 9t9 -9v-163zM207 511v-322q0 -9 -9 -9t-9 9v322q0 9 9 9t9 -9z" />
    <glyph glyph-name="u" unicode="u"
d="M369 682h-342v-307q0 -9 -9 -9t-9 9v316q0 9 9 9h360q9 0 9 -9v-316q0 -9 -9 -9t-9 9v307zM333 646h-270v-271q0 -9 -9 -9t-9 9v280q0 9 9 9h288q9 0 9 -9v-280q0 -9 -9 -9t-9 9v271zM297 610h-198v-235q0 -9 -9 -9t-9 9v244q0 9 9 9h216q9 0 9 -9v-244q0 -9 -9 -9t-9 9
v235zM261 574h-126v-199q0 -9 -9 -9t-9 9v208q0 9 9 9h144q9 0 9 -9v-208q0 -9 -9 -9t-9 9v199zM225 538h-54v-163q0 -9 -9 -9t-9 9v172q0 9 9 9h72q9 0 9 -9v-172q0 -9 -9 -9t-9 9v163zM27 18h342v307q0 9 9 9t9 -9v-316q0 -9 -9 -9h-360q-9 0 -9 9v316q0 9 9 9t9 -9v-307z
M63 54h270v271q0 9 9 9t9 -9v-280q0 -9 -9 -9h-288q-9 0 -9 9v280q0 9 9 9t9 -9v-271zM99 90h198v235q0 9 9 9t9 -9v-244q0 -9 -9 -9h-216q-9 0 -9 9v244q0 9 9 9t9 -9v-235zM135 126h126v199q0 9 9 9t9 -9v-208q0 -9 -9 -9h-144q-9 0 -9 9v208q0 9 9 9t9 -9v-199zM171 162
h54v163q0 9 9 9t9 -9v-172q0 -9 -9 -9h-72q-9 0 -9 9v172q0 9 9 9t9 -9v-163zM207 511v-322q0 -9 -9 -9t-9 9v322q0 9 9 9t9 -9z" />
    <glyph glyph-name="v" unicode="v"
d="M369 682h-342v-307q0 -9 -9 -9t-9 9v316q0 9 9 9h360q9 0 9 -9v-316q0 -9 -9 -9t-9 9v307zM333 646h-270v-271q0 -9 -9 -9t-9 9v280q0 9 9 9h288q9 0 9 -9v-280q0 -9 -9 -9t-9 9v271zM297 610h-198v-235q0 -9 -9 -9t-9 9v244q0 9 9 9h216q9 0 9 -9v-244q0 -9 -9 -9t-9 9
v235zM261 574h-126v-199q0 -9 -9 -9t-9 9v208q0 9 9 9h144q9 0 9 -9v-208q0 -9 -9 -9t-9 9v199zM225 538h-54v-163q0 -9 -9 -9t-9 9v172q0 9 9 9h72q9 0 9 -9v-172q0 -9 -9 -9t-9 9v163zM27 18h342v307q0 9 9 9t9 -9v-316q0 -9 -9 -9h-360q-9 0 -9 9v316q0 9 9 9t9 -9v-307z
M63 54h270v271q0 9 9 9t9 -9v-280q0 -9 -9 -9h-288q-9 0 -9 9v280q0 9 9 9t9 -9v-271zM99 90h198v235q0 9 9 9t9 -9v-244q0 -9 -9 -9h-216q-9 0 -9 9v244q0 9 9 9t9 -9v-235zM135 126h126v199q0 9 9 9t9 -9v-208q0 -9 -9 -9h-144q-9 0 -9 9v208q0 9 9 9t9 -9v-199zM171 162
h54v163q0 9 9 9t9 -9v-172q0 -9 -9 -9h-72q-9 0 -9 9v172q0 9 9 9t9 -9v-163zM207 511v-322q0 -9 -9 -9t-9 9v322q0 9 9 9t9 -9z" />
    <glyph glyph-name="w" unicode="w"
d="M369 682h-342v-307q0 -9 -9 -9t-9 9v316q0 9 9 9h360q9 0 9 -9v-316q0 -9 -9 -9t-9 9v307zM333 646h-270v-271q0 -9 -9 -9t-9 9v280q0 9 9 9h288q9 0 9 -9v-280q0 -9 -9 -9t-9 9v271zM297 610h-198v-235q0 -9 -9 -9t-9 9v244q0 9 9 9h216q9 0 9 -9v-244q0 -9 -9 -9t-9 9
v235zM261 574h-126v-199q0 -9 -9 -9t-9 9v208q0 9 9 9h144q9 0 9 -9v-208q0 -9 -9 -9t-9 9v199zM225 538h-54v-163q0 -9 -9 -9t-9 9v172q0 9 9 9h72q9 0 9 -9v-172q0 -9 -9 -9t-9 9v163zM27 18h342v307q0 9 9 9t9 -9v-316q0 -9 -9 -9h-360q-9 0 -9 9v316q0 9 9 9t9 -9v-307z
M63 54h270v271q0 9 9 9t9 -9v-280q0 -9 -9 -9h-288q-9 0 -9 9v280q0 9 9 9t9 -9v-271zM99 90h198v235q0 9 9 9t9 -9v-244q0 -9 -9 -9h-216q-9 0 -9 9v244q0 9 9 9t9 -9v-235zM135 126h126v199q0 9 9 9t9 -9v-208q0 -9 -9 -9h-144q-9 0 -9 9v208q0 9 9 9t9 -9v-199zM171 162
h54v163q0 9 9 9t9 -9v-172q0 -9 -9 -9h-72q-9 0 -9 9v172q0 9 9 9t9 -9v-163zM207 511v-322q0 -9 -9 -9t-9 9v322q0 9 9 9t9 -9z" />
    <glyph glyph-name="x" unicode="x"
d="M369 682h-342v-307q0 -9 -9 -9t-9 9v316q0 9 9 9h360q9 0 9 -9v-316q0 -9 -9 -9t-9 9v307zM333 646h-270v-271q0 -9 -9 -9t-9 9v280q0 9 9 9h288q9 0 9 -9v-280q0 -9 -9 -9t-9 9v271zM297 610h-198v-235q0 -9 -9 -9t-9 9v244q0 9 9 9h216q9 0 9 -9v-244q0 -9 -9 -9t-9 9
v235zM261 574h-126v-199q0 -9 -9 -9t-9 9v208q0 9 9 9h144q9 0 9 -9v-208q0 -9 -9 -9t-9 9v199zM225 538h-54v-163q0 -9 -9 -9t-9 9v172q0 9 9 9h72q9 0 9 -9v-172q0 -9 -9 -9t-9 9v163zM27 18h342v307q0 9 9 9t9 -9v-316q0 -9 -9 -9h-360q-9 0 -9 9v316q0 9 9 9t9 -9v-307z
M63 54h270v271q0 9 9 9t9 -9v-280q0 -9 -9 -9h-288q-9 0 -9 9v280q0 9 9 9t9 -9v-271zM99 90h198v235q0 9 9 9t9 -9v-244q0 -9 -9 -9h-216q-9 0 -9 9v244q0 9 9 9t9 -9v-235zM135 126h126v199q0 9 9 9t9 -9v-208q0 -9 -9 -9h-144q-9 0 -9 9v208q0 9 9 9t9 -9v-199zM171 162
h54v163q0 9 9 9t9 -9v-172q0 -9 -9 -9h-72q-9 0 -9 9v172q0 9 9 9t9 -9v-163zM207 511v-322q0 -9 -9 -9t-9 9v322q0 9 9 9t9 -9z" />
    <glyph glyph-name="y" unicode="y"
d="M369 682h-342v-307q0 -9 -9 -9t-9 9v316q0 9 9 9h360q9 0 9 -9v-316q0 -9 -9 -9t-9 9v307zM333 646h-270v-271q0 -9 -9 -9t-9 9v280q0 9 9 9h288q9 0 9 -9v-280q0 -9 -9 -9t-9 9v271zM297 610h-198v-235q0 -9 -9 -9t-9 9v244q0 9 9 9h216q9 0 9 -9v-244q0 -9 -9 -9t-9 9
v235zM261 574h-126v-199q0 -9 -9 -9t-9 9v208q0 9 9 9h144q9 0 9 -9v-208q0 -9 -9 -9t-9 9v199zM225 538h-54v-163q0 -9 -9 -9t-9 9v172q0 9 9 9h72q9 0 9 -9v-172q0 -9 -9 -9t-9 9v163zM27 18h342v307q0 9 9 9t9 -9v-316q0 -9 -9 -9h-360q-9 0 -9 9v316q0 9 9 9t9 -9v-307z
M63 54h270v271q0 9 9 9t9 -9v-280q0 -9 -9 -9h-288q-9 0 -9 9v280q0 9 9 9t9 -9v-271zM99 90h198v235q0 9 9 9t9 -9v-244q0 -9 -9 -9h-216q-9 0 -9 9v244q0 9 9 9t9 -9v-235zM135 126h126v199q0 9 9 9t9 -9v-208q0 -9 -9 -9h-144q-9 0 -9 9v208q0 9 9 9t9 -9v-199zM171 162
h54v163q0 9 9 9t9 -9v-172q0 -9 -9 -9h-72q-9 0 -9 9v172q0 9 9 9t9 -9v-163zM207 511v-322q0 -9 -9 -9t-9 9v322q0 9 9 9t9 -9z" />
    <glyph glyph-name="z" unicode="z"
d="M369 682h-342v-307q0 -9 -9 -9t-9 9v316q0 9 9 9h360q9 0 9 -9v-316q0 -9 -9 -9t-9 9v307zM333 646h-270v-271q0 -9 -9 -9t-9 9v280q0 9 9 9h288q9 0 9 -9v-280q0 -9 -9 -9t-9 9v271zM297 610h-198v-235q0 -9 -9 -9t-9 9v244q0 9 9 9h216q9 0 9 -9v-244q0 -9 -9 -9t-9 9
v235zM261 574h-126v-199q0 -9 -9 -9t-9 9v208q0 9 9 9h144q9 0 9 -9v-208q0 -9 -9 -9t-9 9v199zM225 538h-54v-163q0 -9 -9 -9t-9 9v172q0 9 9 9h72q9 0 9 -9v-172q0 -9 -9 -9t-9 9v163zM27 18h342v307q0 9 9 9t9 -9v-316q0 -9 -9 -9h-360q-9 0 -9 9v316q0 9 9 9t9 -9v-307z
M63 54h270v271q0 9 9 9t9 -9v-280q0 -9 -9 -9h-288q-9 0 -9 9v280q0 9 9 9t9 -9v-271zM99 90h198v235q0 9 9 9t9 -9v-244q0 -9 -9 -9h-216q-9 0 -9 9v244q0 9 9 9t9 -9v-235zM135 126h126v199q0 9 9 9t9 -9v-208q0 -9 -9 -9h-144q-9 0 -9 9v208q0 9 9 9t9 -9v-199zM171 162
h54v163q0 9 9 9t9 -9v-172q0 -9 -9 -9h-72q-9 0 -9 9v172q0 9 9 9t9 -9v-163zM207 511v-322q0 -9 -9 -9t-9 9v322q0 9 9 9t9 -9z" />
    <glyph glyph-name="Aring" unicode="&#xc5;" horiz-adv-x="491"
d="M184 257h43q9 0 9 -9t-9 -9h-56q-10 0 -7 10l74 299q2 9 9 9t9 -9l73 -299q3 -10 -7 -10h-55q-9 0 -9 9t9 9h42l-62 255zM455 18l-83 316q-1 5 1 9t7 4q7 0 10 -9l85 -328q3 -10 -7 -10h-87q-8 0 -10 9l-37 148h-176l-37 -148q-2 -9 -10 -9h-88q-10 0 -7 10l86 328
q3 9 10 9q5 0 7 -4t1 -9l-83 -316h68l37 148q2 9 10 9h188q8 0 10 -9l37 -148h68zM361 377l-80 305h-70l-80 -305q-3 -9 -10 -9q-5 0 -7 4t-1 9l81 310q2 9 10 9h84q8 0 10 -9l81 -310q1 -5 -1 -9t-7 -4q-7 0 -10 9zM168 804q0 35 22.5 57.5t56.5 22.5q35 0 57.5 -23
t22.5 -57q0 -28 -15.5 -48.5t-40.5 -27.5q-14 -4 -14 8q0 7 7 9q45 12 45 59q0 27 -17.5 44.5t-44.5 17.5t-44 -17.5t-17 -44.5q0 -48 44 -59q7 -2 7 -9q0 -12 -14 -8q-25 7 -40 27.5t-15 48.5z" />
    <glyph glyph-name="AE" unicode="&#xc6;" horiz-adv-x="633"
d="M184 257h43q9 0 9 -9t-9 -9h-56q-10 0 -7 10l74 299q2 9 9 9t9 -9l73 -299q3 -10 -7 -10h-55q-9 0 -9 9t9 9h42l-62 255zM384 324h129v11q0 9 9 9t9 -9v-20q0 -9 -9 -9h-123l53 -205h145q9 0 9 -9v-83q0 -9 -9 -9h-216q-8 0 -10 9l-37 148h-176l-37 -148q-2 -9 -10 -9
h-88q-10 0 -7 10l86 328q3 9 10 9q5 0 7 -4t1 -9l-83 -316h68l37 148q2 9 10 9h188q8 0 10 -9l37 -148h201v65h-142q-8 0 -10 9l-59 222q-3 10 7 10zM308 617h280v65h-377l-80 -305q-3 -9 -10 -9q-5 0 -7 4t-1 9l81 310q2 9 10 9h393q9 0 9 -9v-83q0 -9 -9 -9h-275l51 -192
h149q9 0 9 -9v-23q0 -9 -9 -9t-9 9v13h-147q-8 0 -10 9l-55 210q-3 10 7 10z" />
    <glyph glyph-name="Oslash" unicode="&#xd8;" horiz-adv-x="490"
d="M53 190v145q0 9 9 9t9 -9v-145q0 -69 44.5 -121.5t128.5 -52.5q76 0 125.5 50t49.5 124v145q0 9 9 9t9 -9v-145q0 -90 -58 -141.5t-135 -51.5q-76 0 -133.5 50t-57.5 143zM53 375v135q0 90 57 141.5t136 51.5q76 0 133.5 -50t57.5 -143v-135q0 -9 -9 -9t-9 9v135
q0 69 -44.5 121.5t-128.5 52.5q-76 0 -125.5 -50t-49.5 -124v-135q0 -9 -9 -9t-9 9zM303 596l-73 -208q-3 -8 -10 -8q-4 0 -7 4t-1 8l73 203q-14 8 -40 8q-39 0 -64.5 -25.5t-25.5 -68.5v-279l43 122q3 8 10 8q4 0 7 -4t1 -8l-61 -171q-3 -9 -10 -9q-8 0 -8 9v332
q0 49 28.5 81t79.5 32q30 0 53 -13q8 -4 5 -13zM335 470l-36 -103q-3 -8 -10 -8q-5 0 -7 3.5t-1 8.5l54 152q3 9 10 9q8 0 8 -9v-332q0 -49 -28.5 -81t-79.5 -32q-30 0 -53 13q-8 4 -5 13l80 227q3 8 10 8q5 0 7 -3.5t1 -8.5l-80 -222q14 -8 40 -8q39 0 64.5 25.5t25.5 68.5
v279z" />
    <glyph glyph-name="aring" unicode="&#xe5;"
d="M369 682h-342v-307q0 -9 -9 -9t-9 9v316q0 9 9 9h360q9 0 9 -9v-316q0 -9 -9 -9t-9 9v307zM333 646h-270v-271q0 -9 -9 -9t-9 9v280q0 9 9 9h288q9 0 9 -9v-280q0 -9 -9 -9t-9 9v271zM297 610h-198v-235q0 -9 -9 -9t-9 9v244q0 9 9 9h216q9 0 9 -9v-244q0 -9 -9 -9t-9 9
v235zM261 574h-126v-199q0 -9 -9 -9t-9 9v208q0 9 9 9h144q9 0 9 -9v-208q0 -9 -9 -9t-9 9v199zM225 538h-54v-163q0 -9 -9 -9t-9 9v172q0 9 9 9h72q9 0 9 -9v-172q0 -9 -9 -9t-9 9v163zM27 18h342v307q0 9 9 9t9 -9v-316q0 -9 -9 -9h-360q-9 0 -9 9v316q0 9 9 9t9 -9v-307z
M63 54h270v271q0 9 9 9t9 -9v-280q0 -9 -9 -9h-288q-9 0 -9 9v280q0 9 9 9t9 -9v-271zM99 90h198v235q0 9 9 9t9 -9v-244q0 -9 -9 -9h-216q-9 0 -9 9v244q0 9 9 9t9 -9v-235zM135 126h126v199q0 9 9 9t9 -9v-208q0 -9 -9 -9h-144q-9 0 -9 9v208q0 9 9 9t9 -9v-199zM171 162
h54v163q0 9 9 9t9 -9v-172q0 -9 -9 -9h-72q-9 0 -9 9v172q0 9 9 9t9 -9v-163zM207 511v-322q0 -9 -9 -9t-9 9v322q0 9 9 9t9 -9z" />
    <glyph glyph-name="ae" unicode="&#xe6;"
d="M369 682h-342v-307q0 -9 -9 -9t-9 9v316q0 9 9 9h360q9 0 9 -9v-316q0 -9 -9 -9t-9 9v307zM333 646h-270v-271q0 -9 -9 -9t-9 9v280q0 9 9 9h288q9 0 9 -9v-280q0 -9 -9 -9t-9 9v271zM297 610h-198v-235q0 -9 -9 -9t-9 9v244q0 9 9 9h216q9 0 9 -9v-244q0 -9 -9 -9t-9 9
v235zM261 574h-126v-199q0 -9 -9 -9t-9 9v208q0 9 9 9h144q9 0 9 -9v-208q0 -9 -9 -9t-9 9v199zM225 538h-54v-163q0 -9 -9 -9t-9 9v172q0 9 9 9h72q9 0 9 -9v-172q0 -9 -9 -9t-9 9v163zM27 18h342v307q0 9 9 9t9 -9v-316q0 -9 -9 -9h-360q-9 0 -9 9v316q0 9 9 9t9 -9v-307z
M63 54h270v271q0 9 9 9t9 -9v-280q0 -9 -9 -9h-288q-9 0 -9 9v280q0 9 9 9t9 -9v-271zM99 90h198v235q0 9 9 9t9 -9v-244q0 -9 -9 -9h-216q-9 0 -9 9v244q0 9 9 9t9 -9v-235zM135 126h126v199q0 9 9 9t9 -9v-208q0 -9 -9 -9h-144q-9 0 -9 9v208q0 9 9 9t9 -9v-199zM171 162
h54v163q0 9 9 9t9 -9v-172q0 -9 -9 -9h-72q-9 0 -9 9v172q0 9 9 9t9 -9v-163zM207 511v-322q0 -9 -9 -9t-9 9v322q0 9 9 9t9 -9z" />
    <glyph glyph-name="oslash" unicode="&#xf8;"
d="M369 682h-342v-307q0 -9 -9 -9t-9 9v316q0 9 9 9h360q9 0 9 -9v-316q0 -9 -9 -9t-9 9v307zM333 646h-270v-271q0 -9 -9 -9t-9 9v280q0 9 9 9h288q9 0 9 -9v-280q0 -9 -9 -9t-9 9v271zM297 610h-198v-235q0 -9 -9 -9t-9 9v244q0 9 9 9h216q9 0 9 -9v-244q0 -9 -9 -9t-9 9
v235zM261 574h-126v-199q0 -9 -9 -9t-9 9v208q0 9 9 9h144q9 0 9 -9v-208q0 -9 -9 -9t-9 9v199zM225 538h-54v-163q0 -9 -9 -9t-9 9v172q0 9 9 9h72q9 0 9 -9v-172q0 -9 -9 -9t-9 9v163zM27 18h342v307q0 9 9 9t9 -9v-316q0 -9 -9 -9h-360q-9 0 -9 9v316q0 9 9 9t9 -9v-307z
M63 54h270v271q0 9 9 9t9 -9v-280q0 -9 -9 -9h-288q-9 0 -9 9v280q0 9 9 9t9 -9v-271zM99 90h198v235q0 9 9 9t9 -9v-244q0 -9 -9 -9h-216q-9 0 -9 9v244q0 9 9 9t9 -9v-235zM135 126h126v199q0 9 9 9t9 -9v-208q0 -9 -9 -9h-144q-9 0 -9 9v208q0 9 9 9t9 -9v-199zM171 162
h54v163q0 9 9 9t9 -9v-172q0 -9 -9 -9h-72q-9 0 -9 9v172q0 9 9 9t9 -9v-163zM207 511v-322q0 -9 -9 -9t-9 9v322q0 9 9 9t9 -9z" />
    <glyph glyph-name="endash" unicode="&#x2013;" horiz-adv-x="520"
d="M40 315v20q0 9 9 9t9 -9v-11h404v11q0 9 9 9t9 -9v-20q0 -9 -9 -9h-422q-9 0 -9 9zM40 377v20q0 9 9 9h422q9 0 9 -9v-20q0 -9 -9 -9t-9 9v11h-404v-11q0 -9 -9 -9t-9 9z" />
    </font>
</defs>
</svg>
